<svg width="16" height="16" viewBox="0 0 16 16" fill="none" xmlns="http://www.w3.org/2000/svg">
<path d="M9.97727 4.75H11.9545C12.3873 4.75 12.8158 4.83406 13.2157 4.99739C13.6155 5.16072 13.9788 5.40011 14.2848 5.7019C14.5908 6.00369 14.8335 6.36197 14.9991 6.75628C15.1648 7.15059 15.25 7.5732 15.25 8C15.25 8.4268 15.1648 8.84941 14.9991 9.24372C14.8335 9.63803 14.5908 9.99631 14.2848 10.2981C13.9788 10.5999 13.6155 10.8393 13.2157 11.0026C12.8158 11.1659 12.3873 11.25 11.9545 11.25H9.97727M6.02273 11.25H4.04545C3.61269 11.25 3.18416 11.1659 2.78434 11.0026C2.38452 10.8393 2.02123 10.5999 1.71522 10.2981C1.0972 9.6886 0.75 8.86195 0.75 8C0.75 7.13805 1.0972 6.3114 1.71522 5.7019C2.33323 5.09241 3.17145 4.75 4.04545 4.75H6.02273" stroke="white" stroke-width="1.5" stroke-linecap="round" stroke-linejoin="round"/>
<path d="M5.36426 8.00003H10.637" stroke="white" stroke-width="1.5" stroke-linecap="round" stroke-linejoin="round"/>
</svg>
