<svg width="16" height="16" viewBox="0 0 16 16" fill="none" xmlns="http://www.w3.org/2000/svg">
<g clip-path="url(#clip0_756_855)">
<g clip-path="url(#clip1_756_855)">
<path d="M3.41245 14.8679C2.67005 14.8679 2.00872 14.7058 1.42845 14.3815C0.856717 14.0487 0.434317 13.5666 0.161251 12.9351L1.85085 12.3207C1.97032 12.7388 2.16232 13.029 2.42685 13.1911C2.69992 13.3447 2.99432 13.4215 3.31005 13.4215C3.76232 13.4215 4.13352 13.2892 4.42365 13.0247C4.71378 12.7602 4.85885 12.3804 4.85885 11.8855C4.85885 11.3564 4.70525 10.9682 4.39805 10.7207C4.09938 10.4732 3.74952 10.3495 3.34845 10.3495C2.71698 10.3495 2.24765 10.6268 1.94045 11.1815L0.212451 10.5415L0.750051 6.16389H6.47165V7.75109H2.36285L2.17085 9.35109C2.36712 9.20603 2.62312 9.09509 2.93885 9.01829C3.26312 8.94149 3.57458 8.90309 3.87325 8.90309C4.38525 8.90309 4.86738 9.01403 5.31965 9.23589C5.78045 9.45776 6.15165 9.79056 6.43325 10.2343C6.72338 10.6695 6.86845 11.2199 6.86845 11.8855C6.86845 12.534 6.70632 13.0802 6.38205 13.5239C6.06632 13.9676 5.64392 14.3047 5.11485 14.5351C4.59432 14.757 4.02685 14.8679 3.41245 14.8679ZM9.03555 14.8679C8.69422 14.8679 8.39982 14.7442 8.15235 14.4967C7.90488 14.2492 7.78115 13.9548 7.78115 13.6135C7.78115 13.2636 7.90488 12.9692 8.15235 12.7303C8.39982 12.4914 8.69422 12.3719 9.03555 12.3719C9.37688 12.3719 9.66702 12.4914 9.90595 12.7303C10.1534 12.9692 10.2772 13.2636 10.2772 13.6135C10.2772 13.9548 10.1534 14.2492 9.90595 14.4967C9.66702 14.7442 9.37688 14.8679 9.03555 14.8679Z" fill="white"/>
<path d="M12.5872 14.32V5.14497H9.47424V2.62593C10.1979 2.62593 10.7986 2.59179 11.2765 2.52353C11.7544 2.44161 12.1503 2.26411 12.4643 1.99105C12.792 1.70433 13.0787 1.25377 13.3245 0.639367H15.6797V14.32H12.5872Z" fill="white"/>
<path d="M0.212495 4V1.8624H0.855695L1.68129 3.3856V1.8624H2.17089V4H1.52449L0.698895 2.4768V4H0.212495ZM3.37472 4.0384C3.03979 4.0384 2.80192 3.9584 2.66112 3.7984C2.52245 3.6384 2.45312 3.39413 2.45312 3.0656V1.8624H2.95872V3.1072C2.95872 3.21173 2.96832 3.30347 2.98752 3.3824C3.00885 3.4592 3.04939 3.51893 3.10912 3.5616C3.16885 3.60427 3.25739 3.6256 3.37472 3.6256C3.49205 3.6256 3.57952 3.60427 3.63712 3.5616C3.69685 3.51893 3.73632 3.4592 3.75552 3.3824C3.77685 3.30347 3.78752 3.21173 3.78752 3.1072V1.8624H4.29312V3.0656C4.29312 3.39413 4.22272 3.6384 4.08192 3.7984C3.94112 3.9584 3.70539 4.0384 3.37472 4.0384ZM4.57499 4V1.8624H5.27899C5.45393 1.8624 5.61606 1.88053 5.76539 1.9168C5.91686 1.95093 6.04806 2.0096 6.15899 2.0928C6.27206 2.17387 6.35953 2.28373 6.42139 2.4224C6.48539 2.55893 6.51739 2.72853 6.51739 2.9312C6.51739 3.136 6.48539 3.30667 6.42139 3.4432C6.35953 3.57973 6.27206 3.6896 6.15899 3.7728C6.04806 3.85387 5.91686 3.91253 5.76539 3.9488C5.61606 3.98293 5.45393 4 5.27899 4H4.57499ZM5.08059 3.5744H5.28859C5.38033 3.5744 5.46779 3.56693 5.55099 3.552C5.63633 3.53707 5.71206 3.50827 5.77819 3.4656C5.84646 3.4208 5.89979 3.35573 5.93819 3.2704C5.97659 3.18507 5.99579 3.072 5.99579 2.9312C5.99579 2.7904 5.97659 2.67733 5.93819 2.592C5.89979 2.50453 5.84646 2.43947 5.77819 2.3968C5.71206 2.352 5.63633 2.32213 5.55099 2.3072C5.46779 2.29013 5.38033 2.2816 5.28859 2.2816H5.08059V3.5744ZM6.76874 4V1.8624H7.27434V3.5552H8.29834V4H6.76874Z" fill="white"/>
</g>
</g>
<defs>
<clipPath id="clip0_756_855">
<rect width="16" height="16" fill="white"/>
</clipPath>
<clipPath id="clip1_756_855">
<rect width="16" height="16" fill="white"/>
</clipPath>
</defs>
</svg>
