<svg width="16" height="16" viewBox="0 0 16 16" fill="none" xmlns="http://www.w3.org/2000/svg">
<g clip-path="url(#clip0_756_828)">
<path d="M5.22108 10.7789L2.5632 8.12107C2.15171 7.70958 2.15171 7.04241 2.5632 6.63092V6.63092C2.7687 6.42542 3.04995 6.31392 3.34043 6.32279L4.22263 6.34973C4.774 6.36656 5.30783 6.15493 5.69788 5.76487L9.07148 2.39128C9.22809 2.23466 9.22809 1.98074 9.07148 1.82412V1.82412C8.91486 1.6675 8.91486 1.41358 9.07148 1.25696L9.32145 1.00699C9.61612 0.712318 10.0939 0.712318 10.3886 1.00699L14.993 5.61147C15.2877 5.90615 15.2877 6.3839 14.993 6.67858L14.7431 6.92855C14.5864 7.08516 14.3325 7.08516 14.1759 6.92855V6.92855C14.0193 6.77193 13.7654 6.77193 13.6087 6.92855L10.2352 10.3021C9.8451 10.6922 9.63346 11.226 9.6503 11.7774L9.67723 12.6596C9.6861 12.9501 9.5746 13.2313 9.3691 13.4368V13.4368C8.95761 13.8483 8.29045 13.8483 7.87895 13.4368L5.22108 10.7789ZM5.22108 10.7789L1.02353 14.9765" stroke="white" stroke-width="1.5" stroke-linecap="round"/>
</g>
<defs>
<clipPath id="clip0_756_828">
<rect width="16" height="16" fill="white"/>
</clipPath>
</defs>
</svg>
