<svg width="16" height="16" viewBox="0 0 16 16" fill="none" xmlns="http://www.w3.org/2000/svg">
<path d="M7.74509 15.7743C6.41938 15.7743 5.23842 15.4848 4.20223 14.9057C3.18128 14.3114 2.42699 13.4505 1.93938 12.3229L4.95652 11.2257C5.16985 11.9724 5.51271 12.4905 5.98509 12.78C6.47271 13.0543 6.99842 13.1914 7.56223 13.1914C8.36985 13.1914 9.03271 12.9552 9.5508 12.4829C10.0689 12.0105 10.3279 11.3324 10.3279 10.4486C10.3279 9.50381 10.0537 8.81048 9.50509 8.36857C8.97176 7.92667 8.34699 7.70571 7.6308 7.70571C6.50318 7.70571 5.66509 8.20095 5.11652 9.19143L2.0308 8.04857L2.9908 0.231429H13.2079V3.06571H5.8708L5.52795 5.92286C5.87842 5.66381 6.33557 5.46571 6.89938 5.32857C7.47842 5.19143 8.03461 5.12286 8.56795 5.12286C9.48223 5.12286 10.3432 5.32095 11.1508 5.71714C11.9737 6.11333 12.6365 6.70762 13.1394 7.5C13.6575 8.27714 13.9165 9.26 13.9165 10.4486C13.9165 11.6067 13.627 12.5819 13.0479 13.3743C12.4841 14.1667 11.7299 14.7686 10.7851 15.18C9.85557 15.5762 8.84223 15.7743 7.74509 15.7743Z" fill="white"/>
</svg>
