<svg width="16" height="16" viewBox="0 0 16 16" fill="none" xmlns="http://www.w3.org/2000/svg">
<rect x="2.5" y="6.75" width="11" height="8.5" rx="2.25" stroke="white" stroke-width="1.5"/>
<path d="M11.125 3.03571L11.875 3.03571L11.875 3.03571L11.125 3.03571ZM10.375 3.23182C10.375 3.64603 10.7108 3.98182 11.125 3.98182C11.5392 3.98182 11.875 3.64603 11.875 3.23182L10.375 3.23182ZM7.16071 1.5L8.83929 1.5L8.83929 -9.1978e-08L7.16071 -1.59525e-07L7.16071 1.5ZM5.625 7.25L5.625 3.03571L4.125 3.03571L4.125 7.25L5.625 7.25ZM10.375 3.03571L10.375 3.23182L11.875 3.23182L11.875 3.03571L10.375 3.03571ZM7.16071 -1.59525e-07C5.48413 -2.26991e-07 4.125 1.35914 4.125 3.03571L5.625 3.03571C5.625 2.18756 6.31256 1.5 7.16071 1.5L7.16071 -1.59525e-07ZM8.83929 1.5C9.68744 1.5 10.375 2.18756 10.375 3.03571L11.875 3.03571C11.875 1.35913 10.5159 -2.45119e-08 8.83929 -9.1978e-08L8.83929 1.5Z" fill="white"/>
</svg>
