<svg width="16" height="16" viewBox="0 0 16 16" fill="none" xmlns="http://www.w3.org/2000/svg">
<path d="M14.2219 7.54943C13.3903 7.26268 12.9315 7.09064 12.9315 6.74654C12.9315 6.51715 13.2469 6.28775 13.9351 6.28775C14.5946 6.28775 15.0247 6.43113 15.5122 6.54582V5.85764C15.0247 5.77161 14.7667 5.71426 13.9925 5.71426C12.5587 5.71426 11.6125 6.14438 11.6125 6.86124C11.6125 7.54943 12.3867 7.86485 13.4763 8.26629C14.2792 8.55303 14.5659 8.72508 14.5659 9.01183C14.5659 9.32724 14.2792 9.58531 13.5337 9.58531C12.8742 9.58531 12.0426 9.47062 11.6125 9.29857V10.0441C12.186 10.1301 12.6734 10.1875 13.419 10.1875C15.1968 10.1875 15.9997 9.67134 15.9997 8.98315C15.9997 8.26629 15.3688 7.95087 14.2219 7.54943ZM10.0928 6.05836C9.66265 5.85764 8.88844 5.74294 8.17159 5.74294H5.50488V10.1875H8.17159C8.85977 10.1875 9.66265 10.0728 10.0928 9.87206C11.125 9.41327 11.4405 8.66773 11.4405 7.97955C11.4691 7.26268 11.125 6.51715 10.0928 6.05836ZM7.8275 9.55664H6.96727V6.3451H7.8275C9.14651 6.3451 9.94939 6.91859 9.94939 7.95087C9.94939 9.01183 9.11784 9.55664 7.8275 9.55664Z" fill="white"/>
<path d="M3.66933 7.75015C3.66933 7.75015 4.90232 7.54943 4.90232 6.77522C4.90232 6.02968 3.5833 5.71426 2.17826 5.71426C0.916598 5.71426 0.085047 5.85764 0.085047 5.85764V6.54582C0.658532 6.40245 1.20334 6.28775 1.94887 6.28775C2.75175 6.28775 3.35391 6.51715 3.35391 6.86124C3.35391 7.26268 2.75175 7.49208 1.43274 7.49208H0.85925V8.12292H1.43274C2.8091 8.12292 3.5833 8.32364 3.5833 8.83978C3.5833 9.29857 2.89512 9.55664 2.00622 9.55664C1.23202 9.55664 0.543834 9.38459 -0.000976562 9.24122V9.98676C0.285766 10.0441 1.00262 10.1875 2.32164 10.1875C3.8127 10.1875 5.10304 9.70001 5.10304 8.86845C5.10304 8.15159 4.18546 7.75015 3.66933 7.75015Z" fill="white"/>
</svg>
