<svg width="16" height="16" viewBox="0 0 16 16" fill="none" xmlns="http://www.w3.org/2000/svg">
<g clip-path="url(#clip0_756_590)">
<path d="M0.95181 10.8647C2.02421 7.86098 4.7885 5.75 8 5.75C11.2115 5.75 13.9758 7.86098 15.0482 10.8647C15.1718 11.2108 15.0925 11.5291 14.8728 11.7857C14.6421 12.055 14.254 12.25 13.8042 12.25H2.19582C1.74604 12.25 1.35792 12.055 1.12724 11.7857C0.907498 11.5291 0.828239 11.2108 0.95181 10.8647Z" stroke="white" stroke-width="1.5"/>
<rect x="4.00012" y="8.96429" width="1.5" height="1.5" rx="0.75" fill="white"/>
<rect x="10.5001" y="8.96429" width="1.5" height="1.5" rx="0.75" fill="white"/>
<path d="M1.87596 3.84458C1.6462 3.49994 1.73933 3.03428 2.08397 2.80452C2.42862 2.57476 2.89427 2.66789 3.12404 3.01253L1.87596 3.84458ZM3.12404 3.01253L5.12404 6.01253L3.87596 6.84458L1.87596 3.84458L3.12404 3.01253Z" fill="white"/>
<path d="M14.124 3.84458C14.3538 3.49994 14.2607 3.03428 13.916 2.80452C13.5714 2.57476 13.1057 2.66789 12.876 3.01253L14.124 3.84458ZM12.876 3.01253L10.876 6.01253L12.124 6.84458L14.124 3.84458L12.876 3.01253Z" fill="white"/>
</g>
<defs>
<clipPath id="clip0_756_590">
<rect width="16" height="16" fill="white"/>
</clipPath>
</defs>
</svg>
