<svg width="16" height="16" viewBox="0 0 16 16" fill="none" xmlns="http://www.w3.org/2000/svg">
<path d="M10 13.0974C10 14.2019 9.10457 15.0974 8 15.0974C6.89543 15.0974 6 14.2019 6 13.0974M11.5042 13.0974V13.0974C13.154 13.0974 14.174 11.2986 13.3271 9.88275L12.8725 9.12268C12.6287 8.71519 12.5 8.24925 12.5 7.77442V5.22372C12.5 3.55084 11.5663 2.01784 10.0799 1.25028V1.25028C8.80566 0.592254 7.28166 0.591071 6.0014 1.23733V1.23733C4.47597 2.00734 3.5 3.57761 3.5 5.28636V7.77442C3.5 8.24925 3.37128 8.71519 3.12753 9.12268L2.67288 9.88275C1.82595 11.2986 2.84599 13.0974 4.49583 13.0974V13.0974H11.5042Z" stroke="white" stroke-width="1.5" stroke-linecap="round" stroke-linejoin="round"/>
</svg>
