<svg width="16" height="16" viewBox="0 0 16 16" fill="none" xmlns="http://www.w3.org/2000/svg">
<g clip-path="url(#clip0_756_478)">
<path d="M5.73438 3.01562L4.375 0.75M7 7H9M1.65625 5.28125H3.84754M14.3438 5.28125H12.1524M1.65625 12.5312H3.84754M14.3438 12.5312H12.1524M7 11H9M1.65625 8.90625H3.46875M3.46875 8.90625V10.7188C3.46875 13.2213 5.49746 15.25 8 15.25C10.5025 15.25 12.5312 13.2213 12.5312 10.7188V7.09375C12.5312 4.59121 10.5025 2.5625 8 2.5625C5.49746 2.5625 3.46875 4.59121 3.46875 7.09375V8.90625ZM14.3438 8.90625H12.5312M10.2656 3.01562L11.625 0.75" stroke="white" stroke-width="1.5" stroke-linecap="round" stroke-linejoin="round"/>
</g>
<defs>
<clipPath id="clip0_756_478">
<rect width="16" height="16" fill="white"/>
</clipPath>
</defs>
</svg>
