<svg width="16" height="16" viewBox="0 0 16 16" fill="none" xmlns="http://www.w3.org/2000/svg">
<path d="M15.25 8.00009L15.25 10.9999C15.25 12.1045 14.3546 12.9999 13.25 12.9999L2.75 12.9999C1.64543 12.9999 0.749999 12.1045 0.749999 10.9999L0.749999 8.00009" stroke="white" stroke-width="1.5" stroke-linecap="round"/>
<path d="M15.25 6L15.25 8.30166C15.25 9.40623 14.3546 10.3017 13.25 10.3017L2.75 10.3017C1.64543 10.3017 0.749999 9.40623 0.749999 8.30166L0.749999 6" stroke="white" stroke-width="1.5"/>
<path d="M5.5 6.5H10.5" stroke="white" stroke-width="1.5" stroke-linecap="round"/>
<path d="M15.25 11.0001L15.25 5.00009C15.25 3.89552 14.3546 3.00009 13.25 3.00009L2.75 3.00009C1.64543 3.00009 0.749999 3.89552 0.749999 5.00009L0.749999 11.0001" stroke="white" stroke-width="1.5"/>
</svg>
