<svg width="16" height="16" viewBox="0 0 16 16" fill="none" xmlns="http://www.w3.org/2000/svg">
<path d="M0.75 11.7143V6.28571C0.75 5.02335 1.77335 4 3.03571 4H4.22129C4.39388 4 4.55347 3.90833 4.64043 3.75926L5.34697 2.54805C5.5467 2.20566 5.88295 2 6.24302 2H9.75698C10.1171 2 10.4533 2.20566 10.653 2.54806L11.3594 3.75902C11.4465 3.90824 11.6062 4 11.779 4H12.9643C14.2266 4 15.25 5.02335 15.25 6.28571V11.7143C15.25 12.9767 14.2267 14 12.9643 14H3.03571C1.77335 14 0.75 12.9767 0.75 11.7143Z" stroke="white" stroke-width="1.5"/>
<circle cx="8" cy="9" r="2.25" stroke="white" stroke-width="1.5"/>
</svg>
