<svg width="16" height="16" viewBox="0 0 16 16" fill="none" xmlns="http://www.w3.org/2000/svg">
<g clip-path="url(#clip0_756_559)">
<path d="M3.25 13C3.25 11.6193 2.13071 10.5 0.75 10.5" stroke="white" stroke-width="1.5" stroke-linecap="round"/>
<path d="M15.2505 5.23077V10.7692C15.2505 12.0013 14.2517 13 13.0197 13H5.75C5.75 10.2386 3.51142 8 0.75 8L0.750488 5.23077C0.750488 3.99875 1.74924 3 2.98126 3H13.0197C14.2517 3 15.2505 3.99875 15.2505 5.23077Z" stroke="white" stroke-width="1.5" stroke-linecap="round" stroke-linejoin="round"/>
<path d="M1.5 13C1.5 12.5858 1.16421 12.25 0.75 12.25C0.335786 12.25 0 12.5858 0 13C0 13.4142 0.335786 13.75 0.75 13.75C1.16421 13.75 1.5 13.4142 1.5 13Z" fill="white"/>
</g>
<defs>
<clipPath id="clip0_756_559">
<rect width="16" height="11.5" fill="white" transform="translate(0 2.25)"/>
</clipPath>
</defs>
</svg>
