<svg width="16" height="16" viewBox="0 0 16 16" fill="none" xmlns="http://www.w3.org/2000/svg">
<path d="M9.49998 12L10.0303 11.4697C9.88966 11.329 9.6989 11.25 9.49998 11.25V12ZM12 14.5L11.4697 15.0303C11.6842 15.2448 12.0068 15.309 12.287 15.1929C12.5673 15.0768 12.75 14.8033 12.75 14.5H12ZM12 11.6852L11.7375 10.9826C11.4443 11.0922 11.25 11.3722 11.25 11.6852H12ZM1.5 6.99999C1.5 4.65279 3.40279 2.75 5.74999 2.75V1.25C2.57436 1.25 0 3.82436 0 6.99999H1.5ZM5.74999 11.25C3.40279 11.25 1.5 9.3472 1.5 6.99999H0C0 10.1756 2.57436 12.75 5.74999 12.75V11.25ZM9.49998 11.25H5.74999V12.75H9.49998V11.25ZM12.5303 13.9697L10.0303 11.4697L8.96966 12.5303L11.4697 15.0303L12.5303 13.9697ZM11.25 11.6852V14.5H12.75V11.6852H11.25ZM14.5 6.99999C14.5 8.82271 13.3522 10.3792 11.7375 10.9826L12.2625 12.3877C14.4444 11.5724 16 9.4688 16 6.99999H14.5ZM10.25 2.75C12.5972 2.75 14.5 4.65279 14.5 6.99999H16C16 3.82436 13.4256 1.25 10.25 1.25V2.75ZM5.74999 2.75H10.25V1.25H5.74999V2.75Z" fill="white"/>
</svg>
