<svg width="16" height="16" viewBox="0 0 16 16" fill="none" xmlns="http://www.w3.org/2000/svg">
<path d="M11 2.25H11.4999C12.6045 2.25 13.4999 3.14542 13.4999 4.24998L13.5 13.25C13.5 14.3546 12.6046 15.25 11.5 15.25H4.5C3.39543 15.25 2.5 14.3546 2.5 13.25L2.5 4.25C2.5 3.14543 3.39543 2.25 4.5 2.25H4.99989" stroke="white" stroke-width="1.5" stroke-linecap="round" stroke-linejoin="round"/>
<path d="M9.5 0.75H6.5C5.80964 0.75 5.25 1.30964 5.25 2V2.5C5.25 3.19036 5.80964 3.75 6.5 3.75H9.5C10.1904 3.75 10.75 3.19036 10.75 2.5V2C10.75 1.30964 10.1904 0.75 9.5 0.75Z" stroke="white" stroke-width="1.5" stroke-linecap="round" stroke-linejoin="round"/>
</svg>
