<svg width="16" height="16" viewBox="0 0 16 16" fill="none" xmlns="http://www.w3.org/2000/svg">
<path d="M11.9554 6.64062H11.1252C10.8787 5.65576 10.3693 4.76196 9.65494 4.0608C8.94058 3.35964 8.04988 2.87923 7.08405 2.67416C6.11822 2.46908 5.11599 2.54757 4.19125 2.90071C3.26651 3.25384 2.45633 3.86746 1.85277 4.67183C1.24921 5.4762 0.876485 6.43908 0.776934 7.45105C0.677384 8.46302 0.855005 9.48351 1.28961 10.3966C1.72422 11.3096 2.39839 12.0786 3.23552 12.6161C4.07264 13.1537 5.03915 13.4383 6.02523 13.4375H11.9554C12.8292 13.4375 13.6672 13.0795 14.285 12.4421C14.9029 11.8048 15.25 10.9404 15.25 10.0391C15.25 9.13774 14.9029 8.27333 14.285 7.636C13.6672 6.99867 12.8292 6.64062 11.9554 6.64062Z" stroke="white" stroke-width="1.5" stroke-linecap="round" stroke-linejoin="round"/>
</svg>
