<svg width="16" height="16" viewBox="0 0 16 16" fill="none" xmlns="http://www.w3.org/2000/svg">
<g clip-path="url(#clip0_756_467)">
<path d="M1.03571 14.9642L1.61455 14.3853M1.61455 14.3853H3.4462C4.0524 14.3853 4.63378 14.1445 5.06244 13.7159L12.1494 6.62891M1.61455 14.3853V12.5537C1.61455 11.9475 1.85537 11.3661 2.28402 10.9374L9.37097 3.85049M12.1494 6.62891L10.7602 5.2397L9.37097 3.85049M12.1494 6.62891L13.5386 8.01812M12.1494 6.62891L14.1462 4.63238C14.9136 3.86511 14.9136 2.62102 14.1463 1.8537V1.8537C13.379 1.08642 12.135 1.08642 11.3678 1.8537L9.37097 3.85049M9.37097 3.85049L7.98176 2.46128" stroke="white" stroke-width="1.5" stroke-linecap="round"/>
</g>
<defs>
<clipPath id="clip0_756_467">
<rect width="16" height="16" fill="white"/>
</clipPath>
</defs>
</svg>
