<svg width="16" height="16" viewBox="0 0 16 16" fill="none" xmlns="http://www.w3.org/2000/svg">
<g clip-path="url(#clip0_756_684)">
<path d="M15.25 12.8333V12.8333C15.25 14.168 14.168 15.25 12.8333 15.25V15.25C11.4986 15.25 10.4167 14.168 10.4167 12.8333V3.16667C10.4167 1.83198 11.4986 0.75 12.8333 0.75V0.75C14.168 0.75 15.25 1.83198 15.25 3.16667V3.16667C15.25 4.50135 14.168 5.58333 12.8333 5.58333H3.16667C1.83198 5.58333 0.75 4.50135 0.75 3.16667V3.16667C0.75 1.83198 1.83198 0.75 3.16667 0.75V0.75C4.50135 0.75 5.58333 1.83198 5.58333 3.16667V12.8333C5.58333 14.168 4.50135 15.25 3.16667 15.25V15.25C1.83198 15.25 0.75 14.168 0.75 12.8333V12.8333C0.75 11.4986 1.83198 10.4167 3.16667 10.4167H12.8333C14.168 10.4167 15.25 11.4986 15.25 12.8333Z" stroke="white" stroke-width="1.5"/>
</g>
<defs>
<clipPath id="clip0_756_684">
<rect width="16" height="16" fill="white"/>
</clipPath>
</defs>
</svg>
