<svg width="16" height="16" viewBox="0 0 16 16" fill="none" xmlns="http://www.w3.org/2000/svg">
<g clip-path="url(#clip0_756_193)">
<rect x="3.14978" y="3.14999" width="9.7" height="9.7" rx="2.67857" stroke="white" stroke-width="1.5"/>
<path d="M0.749805 6.34998C0.335591 6.34998 -0.000195265 6.01419 -0.000195265 5.59998C-0.000195265 5.18576 0.335591 4.84998 0.749805 4.84998V6.34998ZM3.5498 6.34998H0.749805V4.84998H3.5498V6.34998Z" fill="white"/>
<path d="M0.749683 11.15C0.335469 11.15 -0.000317335 10.8142 -0.000317335 10.4C-0.000317335 9.98578 0.335469 9.64999 0.749683 9.64999V11.15ZM3.54968 11.15H0.749683V9.64999H3.54968V11.15Z" fill="white"/>
<path d="M15.2497 6.34998C15.6639 6.34998 15.9997 6.01419 15.9997 5.59998C15.9997 5.18576 15.6639 4.84998 15.2497 4.84998V6.34998ZM12.4497 6.34998H15.2497V4.84998H12.4497V6.34998Z" fill="white"/>
<path d="M15.2497 11.15C15.6639 11.15 15.9997 10.8142 15.9997 10.4C15.9997 9.98578 15.6639 9.64999 15.2497 9.64999V11.15ZM12.4497 11.15H15.2497V9.64999H12.4497V11.15Z" fill="white"/>
<path d="M9.64954 0.749957C9.64954 0.335744 9.98532 -4.2695e-05 10.3995 -4.26769e-05C10.8137 -4.26588e-05 11.1495 0.335744 11.1495 0.749957L9.64954 0.749957ZM9.64954 3.54996L9.64954 0.749957L11.1495 0.749957L11.1495 3.54996L9.64954 3.54996Z" fill="white"/>
<path d="M4.84949 0.749896C4.84949 0.335683 5.18527 -0.00010373 5.59949 -0.000103712C6.0137 -0.000103694 6.34949 0.335683 6.34949 0.749896L4.84949 0.749896ZM4.84949 3.5499L4.84949 0.749896L6.34949 0.749896L6.34949 3.5499L4.84949 3.5499Z" fill="white"/>
<path d="M9.64954 15.25C9.64954 15.6642 9.98532 16 10.3995 16C10.8137 16 11.1495 15.6642 11.1495 15.25L9.64954 15.25ZM9.64954 12.45L9.64954 15.25L11.1495 15.25L11.1495 12.45L9.64954 12.45Z" fill="white"/>
<path d="M4.84949 15.25C4.84949 15.6642 5.18527 16 5.59949 16C6.0137 16 6.34949 15.6642 6.34949 15.25L4.84949 15.25ZM4.84949 12.45L4.84949 15.25L6.34949 15.25L6.34949 12.45L4.84949 12.45Z" fill="white"/>
</g>
<defs>
<clipPath id="clip0_756_193">
<rect width="16" height="16" fill="white"/>
</clipPath>
</defs>
</svg>
