<svg width="16" height="16" viewBox="0 0 16 16" fill="none" xmlns="http://www.w3.org/2000/svg">
<g clip-path="url(#clip0_756_392)">
<path d="M6.65033 1.14129C7.48434 0.65479 8.51563 0.65479 9.34964 1.14129L13.219 3.39844C14.0419 3.87846 14.5479 4.75945 14.5479 5.71213V10.2879C14.5479 11.2406 14.0419 12.1215 13.219 12.6016L9.34964 14.8587C8.51563 15.3452 7.48434 15.3452 6.65033 14.8587L2.78094 12.6016C1.95804 12.1215 1.45203 11.2406 1.45203 10.2879V5.71213C1.45203 4.75945 1.95804 3.87846 2.78094 3.39844L6.65033 1.14129Z" stroke="white" stroke-width="1.5"/>
<path d="M14.082 4.95923L8.58833 8.25541C8.22641 8.47256 7.77426 8.47256 7.41234 8.25541L1.9187 4.95923" stroke="white" stroke-width="1.5"/>
<path d="M7.9989 8V15.4286" stroke="white" stroke-width="1.5"/>
</g>
<defs>
<clipPath id="clip0_756_392">
<rect width="16" height="16" fill="white"/>
</clipPath>
</defs>
</svg>
