<svg width="16" height="16" viewBox="0 0 16 16" fill="none" xmlns="http://www.w3.org/2000/svg">
<g clip-path="url(#clip0_756_496)">
<path d="M8 5.1C11.5899 5.1 14.5 4.12622 14.5 2.925C14.5 1.72378 11.5899 0.75 8 0.75C4.41015 0.75 1.5 1.72378 1.5 2.925C1.5 4.12622 4.41015 5.1 8 5.1Z" stroke="white" stroke-width="1.5" stroke-linecap="round" stroke-linejoin="round"/>
<path d="M14.5 8C14.5 9.2035 11.6111 10.175 8 10.175C4.38889 10.175 1.5 9.2035 1.5 8" stroke="white" stroke-width="1.5" stroke-linecap="round" stroke-linejoin="round"/>
<path d="M1.5 2.92511V13.0751C1.5 14.2786 4.38889 15.2501 8 15.2501C11.6111 15.2501 14.5 14.2786 14.5 13.0751V2.92511" stroke="white" stroke-width="1.5" stroke-linecap="round" stroke-linejoin="round"/>
</g>
<defs>
<clipPath id="clip0_756_496">
<rect width="16" height="16" fill="white"/>
</clipPath>
</defs>
</svg>
