<svg width="16" height="16" viewBox="0 0 16 16" fill="none" xmlns="http://www.w3.org/2000/svg">
<g clip-path="url(#clip0_756_598)">
<path d="M0.749939 0.75L15.2499 15.25" stroke="white" stroke-width="1.5" stroke-linecap="round"/>
<path d="M6.32694 7.07693C6.74116 7.07693 7.07694 6.74115 7.07694 6.32693C7.07694 5.91272 6.74116 5.57693 6.32694 5.57693V7.07693ZM2.42283 9.86538C2.83705 9.86538 3.17283 9.52959 3.17283 9.11538C3.17283 8.70117 2.83705 8.36538 2.42283 8.36538V9.86538ZM3.16308 6.89067C3.41105 7.22246 3.88104 7.2904 4.21282 7.04242C4.54461 6.79445 4.61255 6.32446 4.36458 5.99268L3.16308 6.89067ZM6.32694 5.57693H5.4231V7.07693H6.32694V5.57693ZM5.4231 13.0769H9.11899V11.5769H5.4231V13.0769ZM2.42283 8.36538C1.91303 8.36538 1.49976 7.9521 1.49976 7.4423H-0.000244141C-0.000244141 8.78053 1.0846 9.86538 2.42283 9.86538V8.36538ZM1.49976 7.4423C1.49976 6.9325 1.91303 6.51923 2.42283 6.51923V5.01923C1.0846 5.01923 -0.000244141 6.10407 -0.000244141 7.4423H1.49976ZM2.42283 6.51923C2.72513 6.51923 2.99348 6.66375 3.16308 6.89067L4.36458 5.99268C3.924 5.40319 3.21816 5.01923 2.42283 5.01923V6.51923ZM9.11899 13.0769C10.2218 13.0769 11.2627 12.5671 11.9387 11.6958L10.7536 10.7763C10.3617 11.2814 9.75831 11.5769 9.11899 11.5769V13.0769ZM1.6731 9.32693C1.6731 11.398 3.35203 13.0769 5.4231 13.0769V11.5769C4.18045 11.5769 3.1731 10.5696 3.1731 9.32693H1.6731ZM5.4231 5.57693C3.35203 5.57693 1.6731 7.25587 1.6731 9.32693H3.1731C3.1731 8.08429 4.18045 7.07693 5.4231 7.07693V5.57693Z" fill="white"/>
<path d="M7.49994 12V11.7143C7.49994 10.7675 6.73243 10 5.78565 10H5.49994" stroke="white" stroke-width="1.5" stroke-linecap="round"/>
<path d="M13.0192 9.704C12.605 9.704 12.2692 10.0398 12.2692 10.454C12.2692 10.8682 12.605 11.204 13.0192 11.204V9.704ZM13.9691 6.20423L13.6493 6.88266L13.9691 6.20423ZM13.5289 5.91553L14.0568 5.38286L14.0568 5.38286L13.5289 5.91553ZM10.295 2.71018L9.76706 3.24285L9.76706 3.24285L10.295 2.71018ZM8.81348 3.92645L9.36844 3.42195H9.36844L8.81348 3.92645ZM10.0728 2.53298L9.62686 3.136L10.0728 2.53298ZM10.1862 2.61683L9.74024 3.21985L9.74024 3.21985L10.1862 2.61683ZM8.59343 3.50894L9.32328 3.33627L8.59343 3.50894ZM14.4999 8.22323C14.4999 9.04104 13.837 9.704 13.0192 9.704V11.204C14.6654 11.204 15.9999 9.86947 15.9999 8.22323H14.4999ZM13.6493 6.88266C14.1535 7.12029 14.4999 7.63206 14.4999 8.22323H15.9999C15.9999 7.02981 15.2986 6.00171 14.2888 5.52581L13.6493 6.88266ZM14.0568 5.38286L10.823 2.17751L9.76706 3.24285L13.0009 6.4482L14.0568 5.38286ZM8.25853 4.43096L9.68903 6.0045L10.7989 4.9955L9.36844 3.42195L8.25853 4.43096ZM9.62686 3.136L9.74024 3.21985L10.6321 2.01381L10.5188 1.92997L9.62686 3.136ZM9.32328 3.33627C9.31 3.28011 9.31788 3.24358 9.32903 3.21757C9.34214 3.18701 9.36749 3.15486 9.40509 3.13006C9.44269 3.10525 9.48221 3.0946 9.51547 3.09458C9.54377 3.09456 9.58046 3.10169 9.62686 3.136L10.5188 1.92997C9.24986 0.991591 7.50025 2.14582 7.86357 3.6816L9.32328 3.33627ZM9.36844 3.42195C9.34637 3.39767 9.33083 3.36819 9.32328 3.33627L7.86357 3.6816C7.92963 3.96081 8.06553 4.21866 8.25853 4.43096L9.36844 3.42195ZM10.823 2.17751C10.7634 2.11843 10.6996 2.06372 10.6321 2.01381L9.74024 3.21985C9.74972 3.22686 9.75868 3.23455 9.76706 3.24285L10.823 2.17751ZM14.2888 5.52581C14.1593 5.46475 14.0935 5.41915 14.0568 5.38286L13.0009 6.4482C13.2153 6.6607 13.4592 6.79305 13.6493 6.88266L14.2888 5.52581Z" fill="white"/>
<path d="M10.246 5.49854C9.74598 5.49854 9.46099 6.23688 9.67291 6.52814" stroke="white" stroke-width="1.5" stroke-linecap="round"/>
</g>
<defs>
<clipPath id="clip0_756_598">
<rect width="16" height="16" fill="white"/>
</clipPath>
</defs>
</svg>
