<svg width="16" height="16" viewBox="0 0 16 16" fill="none" xmlns="http://www.w3.org/2000/svg">
<path d="M2.60128 10.4484C2.60128 10.5043 2.55544 10.5546 2.49899 10.5546H0.541606C0.484595 10.5546 0.438762 10.5043 0.438762 10.4484V9.03434C0.438762 8.97844 0.484595 8.93373 0.541606 8.93373H2.49899C2.55544 8.93373 2.60128 8.97844 2.60128 9.03434V10.4484ZM2.51632 8.50894H0.523721C0.235311 8.50894 0 8.74369 0 9.03434V10.454C0 10.7391 0.235311 10.9794 0.523721 10.9794H2.51632C2.80529 10.9794 3.04004 10.7391 3.04004 10.454V9.03434C3.04004 8.74369 2.80529 8.50894 2.51632 8.50894Z" fill="white"/>
<path d="M2.60128 7.68731C2.60128 7.73761 2.55544 7.78791 2.49899 7.78791H0.541606C0.484595 7.78791 0.438762 7.73761 0.438762 7.68731V6.26761C0.438762 6.21172 0.484595 6.16701 0.541606 6.16701H2.49899C2.55544 6.16701 2.60128 6.21172 2.60128 6.26761V7.68731ZM2.51632 5.74222H0.523721C0.235311 5.74222 0 5.97697 0 6.26761V7.68731C0 7.97795 0.235311 8.2127 0.523721 8.2127H2.51632C2.80529 8.2127 3.04004 7.97795 3.04004 7.68731V6.26761C3.04004 5.97697 2.80529 5.74222 2.51632 5.74222Z" fill="white"/>
<path d="M10.8164 9.93421C11.2904 10.1242 12.2914 10.2752 13.0728 10.2752C13.928 10.2752 14.2818 9.98451 14.2818 9.61562C14.2818 9.28026 13.9531 9.09022 13.0091 8.74368C11.7465 8.27977 10.8203 7.91087 10.8203 7.07806C10.8203 6.22289 11.9348 5.71426 13.6334 5.71426C14.5456 5.71426 14.8586 5.77016 15.4377 5.87635L15.4421 6.6924C14.8731 6.5862 14.369 6.40175 13.5859 6.40175C12.7464 6.40175 12.3887 6.67004 12.3887 6.94391C12.3887 7.34076 12.9398 7.53079 13.9062 7.87733C15.2515 8.35802 16 8.72691 16 9.53736C16 10.3758 15.0626 10.9794 12.9487 10.9794C12.0807 10.9794 11.4821 10.9235 10.8164 10.8117V9.93421Z" fill="white"/>
<path d="M6.31713 6.43528H5.31105V10.2472H6.31713C7.86146 10.2472 8.83568 9.58208 8.83568 8.34683C8.83568 7.11159 7.86146 6.43528 6.31713 6.43528ZM9.01733 10.5993C8.51988 10.8229 7.57864 10.9682 6.75589 10.9682H3.61133V5.72543H6.75589C7.57864 5.72543 8.51988 5.87076 9.01845 6.09433C10.2297 6.64208 10.6243 7.51961 10.6243 8.34683C10.6243 9.17405 10.233 10.0516 9.01733 10.5993Z" fill="white"/>
</svg>
