<svg width="16" height="16" viewBox="0 0 16 16" fill="none" xmlns="http://www.w3.org/2000/svg">
<g clip-path="url(#clip0_756_172)">
<path d="M8.00005 12.6833C9.89015 10.7932 12.4463 8.23705 14.0845 6.59888C14.9771 5.70625 14.9764 4.25972 14.0838 3.3671L12.183 1.46625C11.2903 0.573623 9.8438 0.57292 8.95118 1.46555C7.313 3.10372 4.75682 5.65991 2.86672 7.55001M8.00005 12.6833C7.71272 12.9707 7.3792 13.3042 7.0496 13.6338C6.15697 14.5264 4.70976 14.5264 3.81714 13.6338L1.91629 11.7329C1.02367 10.8403 1.02364 9.39308 1.91627 8.50046C2.24587 8.17085 2.57938 7.83734 2.86672 7.55001M8.00005 12.6833C5.99536 10.6786 4.87141 9.5547 2.86672 7.55001" stroke="white" stroke-width="1.5" stroke-linecap="round" stroke-linejoin="round"/>
<path d="M15.0815 15.2461H6.34891C5.7427 15.2461 5.16132 15.0053 4.73266 14.5766L2.67505 12.519" stroke="white" stroke-width="1.5" stroke-linecap="round" stroke-linejoin="round"/>
</g>
<defs>
<clipPath id="clip0_756_172">
<rect width="16" height="16" fill="white"/>
</clipPath>
</defs>
</svg>
