<svg width="16" height="16" viewBox="0 0 16 16" fill="none" xmlns="http://www.w3.org/2000/svg">
<g clip-path="url(#clip0_756_328)">
<path d="M9.5 12.625L10.0303 12.0947C9.88968 11.954 9.69891 11.875 9.5 11.875V12.625ZM12 15.125L11.4697 15.6553C11.6842 15.8698 12.0068 15.934 12.287 15.8179C12.5673 15.7018 12.75 15.4283 12.75 15.125H12ZM12 12.5548L11.8602 11.8179C11.5062 11.8851 11.25 12.1945 11.25 12.5548H12ZM1.5 4.875C1.5 3.08007 2.95507 1.625 4.75 1.625V0.125C2.12665 0.125 0 2.25165 0 4.875H1.5ZM1.5 8.625V4.875H0V8.625H1.5ZM4.75 11.875C2.95508 11.875 1.5 10.4199 1.5 8.625H0C0 11.2484 2.12665 13.375 4.75 13.375V11.875ZM9.5 11.875H4.75V13.375H9.5V11.875ZM12.5303 14.5947L10.0303 12.0947L8.96967 13.1553L11.4697 15.6553L12.5303 14.5947ZM11.25 12.5548V15.125H12.75V12.5548H11.25ZM14.5 8.625C14.5 10.2108 13.3635 11.5328 11.8602 11.8179L12.1398 13.2917C14.3378 12.8747 16 10.9448 16 8.625H14.5ZM14.5 4.875V8.625H16V4.875H14.5ZM11.25 1.625C13.0449 1.625 14.5 3.08007 14.5 4.875H16C16 2.25165 13.8734 0.125 11.25 0.125V1.625ZM4.75 1.625H11.25V0.125H4.75V1.625Z" fill="white"/>
<rect x="7.25" y="3" width="1.5" height="4" rx="0.75" fill="white"/>
<rect x="7.25" y="8.5" width="1.5" height="1.5" rx="0.75" fill="white"/>
</g>
<defs>
<clipPath id="clip0_756_328">
<rect width="16" height="16" fill="white"/>
</clipPath>
</defs>
</svg>
