<svg width="16" height="16" viewBox="0 0 16 16" fill="none" xmlns="http://www.w3.org/2000/svg">
<g clip-path="url(#clip0_756_728)">
<path d="M3.35385 7.13393L3.58583 6.61399L3.68981 7.13393H3.35385ZM6.54548 5.78208L5.92156 7.24591L5.65759 5.78208H5.11365L4.40973 7.94183L4.04977 5.78208H3.37785L2.35397 8.10182L2.50595 7.13393H1.49007L1.41008 7.62987H1.83403L1.78603 7.89384C1.54606 7.99783 1.13011 7.96583 0.954129 7.64587C0.842142 7.44589 0.738154 6.99794 1.2101 6.58999C1.59406 6.25403 2.25798 6.19803 2.64193 6.37401C2.64193 6.37401 2.68993 6.09405 2.72992 5.83008C1.99401 5.57411 1.41808 5.79008 1.03412 6.02206C0.51418 6.34202 0.266208 6.83796 0.330201 7.50988C0.410192 8.28579 1.41008 8.77374 2.26598 8.28579C2.27398 8.2778 2.28198 8.2778 2.28198 8.2778L2.20199 8.46177H2.77792L3.13788 7.66187H3.7698L3.90579 8.46177H4.83368L5.30563 6.97395L5.60959 8.46177H5.97755L6.68947 6.81396L6.76146 8.46177H7.3054L7.20141 5.78208H6.54548Z" fill="white"/>
<path d="M7.36133 8.45377H8.88915L8.97714 7.87783H8.01725L8.09724 7.40589H8.92915L9.01714 6.82995H8.17723L8.24923 6.35801H9.20911L9.2971 5.78207H7.78528L7.36133 8.45377Z" fill="white"/>
<path d="M14.8166 6.65397L14.4807 5.78207H13.8488L14.4967 7.18991L14.2967 8.45377H14.8486L15.0166 7.3339L16.0005 5.78207H15.3606L14.8166 6.65397Z" fill="white"/>
<path d="M13.5366 7.3739C13.3926 7.81385 13.0327 8.06982 12.7447 7.94183C12.4567 7.81385 12.3447 7.3499 12.4887 6.90195C12.6327 6.462 12.9927 6.20603 13.2806 6.33402C13.5766 6.47 13.6886 6.93395 13.5366 7.3739ZM13.3286 5.80608C12.7207 5.67009 12.0888 6.15004 11.9208 6.88595C11.7528 7.62187 12.1048 8.33379 12.7127 8.47777C13.3206 8.62175 13.9526 8.13381 14.1205 7.39789C14.2885 6.66198 13.9286 5.95006 13.3286 5.80608Z" fill="white"/>
<path d="M10.8968 6.85396C10.5928 6.85396 10.5128 6.85396 10.5128 6.85396L10.6008 6.35802C10.6008 6.35802 10.6088 6.35802 10.9527 6.35802C11.3447 6.35802 11.2727 6.85396 10.8968 6.85396ZM10.8328 7.93383C10.5288 7.93383 10.3528 7.93383 10.3528 7.93383L10.4408 7.40589C10.4408 7.40589 10.5528 7.40589 10.8968 7.40589C11.3287 7.3979 11.3207 7.93383 10.8328 7.93383ZM11.1527 5.79808C10.8568 5.79008 10.1288 5.79808 10.1288 5.79808H10.1368L9.71289 8.44577C9.71289 8.44577 10.5848 8.44577 10.9447 8.44577C11.4487 8.44577 12.1926 7.70186 11.5207 7.08593C12.2086 6.36601 11.5207 5.80608 11.1527 5.79808Z" fill="white"/>
<path d="M3.55147 10.6547H3.05553V9.64682H3.75944C4.1354 9.64682 4.31938 9.7988 4.31938 10.1268C4.31938 10.5267 4.1194 10.6547 3.55147 10.6547ZM7.01507 9.22287H6.43913L6.42314 9.25487L5.77521 10.4467L5.07929 9.25487L5.06329 9.23087H4.44737L4.49536 9.31086L4.61535 9.50284C4.42337 9.31886 4.1354 9.22287 3.75944 9.22287H2.51959V10.7747L1.59969 9.25487L1.5837 9.23087H1.11175L1.09575 9.25487L0.0478729 11.0147L-0.00012207 11.0947H0.407831H1.31973V10.6787H0.783788L1.31973 9.71081L2.07964 11.0627L2.09564 11.0867H2.70357H3.63946C4.44736 11.0867 4.86332 10.7667 4.86332 10.1428C4.86332 10.0308 4.84732 9.93479 4.82332 9.8468L5.55924 11.0627L5.57524 11.0867H5.93519L5.95119 11.0627L6.96707 9.30286L7.01507 9.22287Z" fill="white"/>
<path d="M10.5898 9.22287H10.5339V10.3347L9.13401 9.23887L9.11801 9.22287H8.75006V10.7747L7.83016 9.25487L7.81417 9.22287H7.34222L7.32622 9.25487L6.27834 11.0067L6.23035 11.0947H6.79028H7.55819V10.6787H7.02225L7.55819 9.71081L8.31811 11.0627L8.33411 11.0947H8.94203H9.246V9.96678L10.6458 11.0787L10.6618 11.0947H11.0298V9.22287H10.5898Z" fill="white"/>
<path d="M12.8059 9.22287H11.7101C11.3261 9.22287 11.1981 9.34286 11.1981 9.69482V10.6227C11.1981 10.9747 11.3261 11.0947 11.7101 11.0947H12.8059C13.1899 11.0947 13.3179 10.9747 13.3179 10.6227V10.3587H13.2619H12.8299H12.7739V10.6467H11.7261V9.66282H12.7739V9.91879H12.8299H13.3179V9.69482C13.3179 9.33486 13.1899 9.22287 12.8059 9.22287Z" fill="white"/>
<path d="M15.4539 10.6547H14.0301V10.3267H14.886V9.91879H14.0301V9.64682H15.4859V9.22287H13.4941V11.0947H15.5099V10.6547H15.4539Z" fill="white"/>
</g>
<defs>
<clipPath id="clip0_756_728">
<rect width="16" height="16" fill="white"/>
</clipPath>
</defs>
</svg>
