<svg width="16" height="16" viewBox="0 0 16 16" fill="none" xmlns="http://www.w3.org/2000/svg">
<path d="M3.16795 13.6694C3.99132 13.9594 4.9108 14.0148 5.7319 14.0148C8.01624 14.0148 7.25479 14.0148 10.6813 14.0148C11.5185 14.0148 12.2194 13.9124 12.8005 13.7076M3.16795 13.6694C1.70066 13.1526 0.53861 11.8907 0.782484 8.86964C0.782484 6.12555 1.3774 5.27755 1.95833 4.34806C2.53926 3.41858 3.77083 1.93147 3.77083 1.93147L5.35141 4.15324C5.35141 4.15324 6.11286 4.15324 8.01648 4.15324C9.53937 4.15324 10.6815 4.15324 10.6815 4.15324L12.2292 1.9314C12.2292 1.9314 13.391 3.41858 14.0417 4.34806C14.6923 5.27755 15.25 6.12555 15.25 8.86964C15.25 11.4616 14.5978 13.0743 12.8005 13.7076M3.16795 13.6694C2.62669 13.0699 1.84875 11.4422 3.06706 9.72716C3.82651 8.65807 5.91152 8.12212 8 8.11931C10.0995 8.11649 12.2024 8.65244 12.9659 9.72716C14.1842 11.4422 13.1095 13.0954 12.8005 13.7076" stroke="white" stroke-width="1.5" stroke-linejoin="round"/>
<circle cx="5.99984" cy="11.2115" r="0.857143" fill="white"/>
<circle cx="9.99984" cy="11.2115" r="0.857143" fill="white"/>
</svg>
