<svg width="16" height="16" viewBox="0 0 16 16" fill="none" xmlns="http://www.w3.org/2000/svg">
<g clip-path="url(#clip0_756_322)">
<path d="M4.43345 7.33537L6.97232 2.18206C7.21919 1.68099 7.74376 1.37815 8.30113 1.41493V1.41493C9.02644 1.46279 9.59027 2.06506 9.59027 2.79195V5.59648C9.59027 5.82277 9.77371 6.00621 10 6.00621V6.00621H13.7599C13.9735 6.00403 14.1851 6.04376 14.3799 6.12266C14.5748 6.20155 14.7483 6.31772 14.8884 6.46312C15.0286 6.60851 15.132 6.77966 15.1916 6.9647C15.2511 7.14974 15.2654 7.34425 15.2333 7.53474L14.2167 13.516C14.1634 13.8329 13.9849 14.1218 13.7142 14.3294C13.4434 14.537 13.0986 14.6494 12.7433 14.6457H4.43345M4.43345 7.33537V14.6457M4.43345 7.33537H2.22338C1.83261 7.33537 1.45785 7.4754 1.18154 7.72467C0.90523 7.97394 0.75 8.31201 0.75 8.66453V13.3166C0.75 13.6691 0.90523 14.0072 1.18154 14.2564C1.45785 14.5057 1.83261 14.6457 2.22338 14.6457H4.43345" stroke="white" stroke-width="1.5" stroke-linecap="round" stroke-linejoin="round"/>
</g>
<defs>
<clipPath id="clip0_756_322">
<rect width="16" height="16" fill="white"/>
</clipPath>
</defs>
</svg>
