<svg width="16" height="16" viewBox="0 0 16 16" fill="none" xmlns="http://www.w3.org/2000/svg">
<path d="M1.15914 14C1.15914 9.30666 -1.76072 1.75618 8 2.00605C17.7607 2.25592 14.8409 8.20234 14.8409 14" stroke="white" stroke-width="1.5" stroke-linecap="round" stroke-linejoin="round"/>
<path d="M4.65332 6.90909L4.65332 8.54545" stroke="white" stroke-width="1.5" stroke-linecap="round" stroke-linejoin="round"/>
<path d="M11.3455 6.90909L11.3455 8.54545" stroke="white" stroke-width="1.5" stroke-linecap="round" stroke-linejoin="round"/>
<path d="M5.76953 10.8196L7.68628 10.2716C7.8916 10.2129 8.10927 10.2129 8.31459 10.2716L10.2311 10.8196" stroke="white" stroke-width="1.14286" stroke-linecap="round" stroke-linejoin="round"/>
<path d="M5.76953 10.8195L7.29537 12.0155C7.70939 12.34 8.29147 12.34 8.70547 12.0155L10.2311 10.8195" stroke="white" stroke-width="1.14286" stroke-linecap="round" stroke-linejoin="round"/>
<path d="M7.55866 10.3081L7.3444 10.3693C6.68842 10.5569 6.52172 11.4091 7.0587 11.83C7.59164 12.2477 8.40921 12.2477 8.94213 11.83L10.2311 10.8196L8.44221 10.3081C8.15548 10.2261 7.84539 10.2261 7.55866 10.3081Z" fill="white"/>
<path d="M7.3444 10.3693L7.18733 9.81992L7.3444 10.3693ZM7.55866 10.3081L7.40159 9.75867L7.55866 10.3081ZM8.44221 10.3081L8.5993 9.75869L8.44221 10.3081ZM10.2311 10.8196L10.5836 11.2693C10.7526 11.1368 10.8331 10.9207 10.7919 10.7099C10.7506 10.4991 10.5947 10.3292 10.3882 10.2702L10.2311 10.8196ZM8.94213 11.83L8.58959 11.3802L8.58959 11.3802L8.94213 11.83ZM7.0587 11.83L7.41121 11.3803L7.4112 11.3803L7.0587 11.83ZM7.50147 10.9188L7.71573 10.8575L7.40159 9.75867L7.18733 9.81992L7.50147 10.9188ZM8.28512 10.8575L10.074 11.369L10.3882 10.2702L8.5993 9.75869L8.28512 10.8575ZM7.71573 10.8575C7.8998 10.8049 8.10106 10.8049 8.28512 10.8575L8.5993 9.75869C8.20991 9.64736 7.79098 9.64735 7.40159 9.75867L7.71573 10.8575ZM9.29466 12.2797L10.5836 11.2693L9.87854 10.3698L8.58959 11.3802L9.29466 12.2797ZM6.70618 12.2797C7.44613 12.8597 8.55475 12.8597 9.29467 12.2797L8.58959 11.3802C8.26368 11.6357 7.73714 11.6357 7.41121 11.3803L6.70618 12.2797ZM7.18733 9.81992C6.08263 10.1357 5.8019 11.571 6.70619 12.2797L7.4112 11.3803C7.24154 11.2473 7.29421 10.978 7.50147 10.9188L7.18733 9.81992Z" fill="white"/>
</svg>
