<svg width="16" height="16" viewBox="0 0 16 16" fill="none" xmlns="http://www.w3.org/2000/svg">
<g clip-path="url(#clip0_756_761)">
<path d="M14.1071 15.25H1.89286C1.26167 15.25 0.75 14.7383 0.75 14.1072V1.78847C0.75 0.865939 1.88175 0.422495 2.50847 1.09946L4.43453 3.17994C4.86356 3.64337 5.59674 3.67231 6.15794 3.38269C6.6428 3.13247 7.28218 2.90386 8 2.90386C8.71782 2.90386 9.3572 3.13247 9.84206 3.38269C10.4033 3.67231 11.1364 3.64337 11.5655 3.17994L13.4915 1.09946C14.1183 0.422495 15.25 0.865939 15.25 1.78847V14.1072C15.25 14.7383 14.7383 15.25 14.1071 15.25Z" stroke="white" stroke-width="1.5" stroke-linecap="round"/>
<circle cx="4.28573" cy="7.71429" r="0.857143" fill="white"/>
<circle cx="11.7144" cy="7.71429" r="0.857143" fill="white"/>
<path d="M5.71399 10.8571C5.71399 11.2381 5.94256 12 6.85685 12C7.77113 12 7.9997 11.2381 7.9997 10.8571" stroke="white" stroke-width="1.5" stroke-linecap="round"/>
<path d="M8.00012 10.8571C8.00012 11.2381 8.22869 12 9.14298 12C10.0573 12 10.2858 11.2381 10.2858 10.8571" stroke="white" stroke-width="1.5" stroke-linecap="round"/>
</g>
<defs>
<clipPath id="clip0_756_761">
<rect width="16" height="16" fill="white"/>
</clipPath>
</defs>
</svg>
