<svg width="16" height="16" viewBox="0 0 16 16" fill="none" xmlns="http://www.w3.org/2000/svg">
<rect x="0.749023" y="0.75" width="14.5" height="14.5" rx="3.82143" stroke="white" stroke-width="1.5"/>
<mask id="path-2-inside-1_756_771" fill="white">
<path d="M3.04857 8.10512C2.91091 7.89937 3.08299 7.64218 3.3583 7.64218H7.69452C7.96983 7.64218 8.14191 7.89936 8.00425 8.10512L5.83614 11.3457C5.69848 11.5514 5.35434 11.5514 5.21668 11.3457L3.04857 8.10512Z"/>
<path d="M7.996 8.10512C7.85834 7.89937 8.03041 7.64218 8.30573 7.64218H12.6419C12.9173 7.64218 13.0893 7.89936 12.9517 8.10512L10.7836 11.3457C10.6459 11.5514 10.3018 11.5514 10.1641 11.3457L7.996 8.10512Z"/>
<path d="M5.55209 4.46294C5.41443 4.25719 5.5865 4 5.86182 4L10.198 4C10.4734 4 10.6454 4.25719 10.5078 4.46294L8.33966 7.70351C8.202 7.90926 7.85785 7.90926 7.7202 7.70351L5.55209 4.46294Z"/>
</mask>
<path d="M5.83614 11.3457L4.58944 10.5116H4.58944L5.83614 11.3457ZM5.21668 11.3457L6.46338 10.5116L5.21668 11.3457ZM7.69452 7.64218V9.14218V7.64218ZM8.00425 8.10512L9.25095 8.93922V8.93922L8.00425 8.10512ZM3.3583 7.64218V6.14218H3.3583L3.3583 7.64218ZM3.04857 8.10512L1.80187 8.93922L3.04857 8.10512ZM10.7836 11.3457L9.53686 10.5116L10.7836 11.3457ZM10.1641 11.3457L11.4108 10.5116L10.1641 11.3457ZM12.6419 7.64218V9.14218V7.64218ZM12.9517 8.10512L14.1984 8.93922V8.93922L12.9517 8.10512ZM8.30573 7.64218V6.14218V7.64218ZM7.996 8.10512L6.74929 8.93922L7.996 8.10512ZM8.33966 7.70351L9.58636 8.53762L8.33966 7.70351ZM7.7202 7.70351L6.47349 8.53762L7.7202 7.70351ZM10.198 4V5.5V4ZM10.5078 4.46294L9.26106 3.62883V3.62883L10.5078 4.46294ZM5.86182 4V2.5V4ZM5.55209 4.46294L6.79879 3.62883L5.55209 4.46294ZM3.3583 9.14218H7.69452V6.14218H3.3583V9.14218ZM6.75755 7.27101L4.58944 10.5116L7.08284 12.1798L9.25095 8.93922L6.75755 7.27101ZM6.46338 10.5116L4.29527 7.27101L1.80187 8.93922L3.96998 12.1798L6.46338 10.5116ZM4.58944 10.5116C4.85269 10.1181 5.25114 10 5.52641 10C5.80168 10 6.20012 10.1181 6.46338 10.5116L3.96998 12.1798C4.37089 12.779 5.01024 13 5.52641 13C6.04258 13 6.68193 12.779 7.08284 12.1798L4.58944 10.5116ZM7.69452 9.14218C7.35948 9.14218 6.99092 8.97941 6.75755 8.6306C6.50757 8.25698 6.46193 7.71285 6.75755 7.27101L9.25095 8.93922C9.68422 8.29163 9.62137 7.51604 9.25095 6.96238C8.89713 6.43354 8.30487 6.14218 7.69452 6.14218V9.14218ZM3.3583 6.14218C2.74795 6.14218 2.15569 6.43354 1.80187 6.96238C1.43145 7.51603 1.3686 8.29163 1.80187 8.93922L4.29527 7.27101C4.59089 7.71285 4.54524 8.25698 4.29527 8.6306C4.0619 8.97941 3.69334 9.14218 3.3583 9.14218L3.3583 6.14218ZM8.30573 9.14218H12.6419V6.14218H8.30573V9.14218ZM11.705 7.27101L9.53686 10.5116L12.0303 12.1798L14.1984 8.93922L11.705 7.27101ZM11.4108 10.5116L9.2427 7.27101L6.74929 8.93922L8.9174 12.1798L11.4108 10.5116ZM9.53686 10.5116C9.80012 10.1181 10.1986 10 10.4738 10C10.7491 10 11.1475 10.1181 11.4108 10.5116L8.9174 12.1798C9.31832 12.779 9.95766 13 10.4738 13C10.99 13 11.6294 12.779 12.0303 12.1798L9.53686 10.5116ZM12.6419 9.14218C12.3069 9.14218 11.9383 8.97941 11.705 8.6306C11.455 8.25698 11.4094 7.71285 11.705 7.27101L14.1984 8.93922C14.6316 8.29163 14.5688 7.51604 14.1984 6.96238C13.8446 6.43354 13.2523 6.14218 12.6419 6.14218V9.14218ZM8.30573 6.14218C7.69537 6.14218 7.10312 6.43354 6.74929 6.96238C6.37887 7.51603 6.31602 8.29163 6.74929 8.93922L9.2427 7.27101C9.53831 7.71285 9.49267 8.25698 9.2427 8.6306C9.00933 8.97941 8.64076 9.14218 8.30573 9.14218V6.14218ZM5.86182 5.5H10.198V2.5H5.86182V5.5ZM9.26106 3.62883L7.09295 6.8694L9.58636 8.53762L11.7545 5.29705L9.26106 3.62883ZM8.9669 6.8694L6.79879 3.62883L4.30539 5.29705L6.47349 8.53762L8.9669 6.8694ZM7.09295 6.8694C7.35621 6.47592 7.75465 6.35782 8.02993 6.35782C8.3052 6.35782 8.70364 6.47593 8.9669 6.8694L6.47349 8.53762C6.87441 9.13685 7.51375 9.35782 8.02992 9.35782C8.5461 9.35782 9.18544 9.13685 9.58636 8.53762L7.09295 6.8694ZM10.198 5.5C9.863 5.5 9.49443 5.33723 9.26106 4.98842C9.01109 4.6148 8.96545 4.07067 9.26106 3.62883L11.7545 5.29705C12.1877 4.64946 12.1249 3.87386 11.7545 3.32021C11.4006 2.79137 10.8084 2.5 10.198 2.5V5.5ZM5.86182 2.5C5.25147 2.5 4.65921 2.79136 4.30539 3.3202C3.93496 3.87386 3.87211 4.64945 4.30539 5.29705L6.79879 3.62883C7.0944 4.07067 7.04876 4.6148 6.79879 4.98842C6.56542 5.33723 6.19685 5.5 5.86182 5.5V2.5Z" fill="white" mask="url(#path-2-inside-1_756_771)"/>
</svg>
