<svg width="16" height="16" viewBox="0 0 16 16" fill="none" xmlns="http://www.w3.org/2000/svg">
<g clip-path="url(#clip0_756_515)">
<path d="M11.0203 6.15857L4.97867 2.5336" stroke="white" stroke-width="1.5" stroke-linecap="round" stroke-linejoin="round"/>
<path d="M14.4996 10.859V5.08159C14.4994 4.8283 14.4325 4.57954 14.3057 4.36025C14.179 4.14096 13.9968 3.95886 13.7774 3.83222L8.72218 0.943507C8.50261 0.816738 8.25354 0.75 8 0.75C7.74646 0.75 7.49739 0.816738 7.27782 0.943507L2.22256 3.83222C2.00321 3.95886 1.82101 4.14096 1.69426 4.36025C1.5675 4.57954 1.50064 4.8283 1.50038 5.08159V10.859C1.50064 11.1123 1.5675 11.3611 1.69426 11.5804C1.82101 11.7996 2.00321 11.9817 2.22256 12.1084L7.27782 14.9971C7.49739 15.1239 7.74646 15.1906 8 15.1906C8.25354 15.1906 8.50261 15.1239 8.72218 14.9971L13.7774 12.1084C13.9968 11.9817 14.179 11.7996 14.3057 11.5804C14.4325 11.3611 14.4994 11.1123 14.4996 10.859Z" stroke="white" stroke-width="1.5" stroke-linecap="round" stroke-linejoin="round"/>
<path d="M1.69577 4.33041L8.0004 7.97742L14.305 4.33041" stroke="white" stroke-width="1.5" stroke-linecap="round" stroke-linejoin="round"/>
<path d="M7.99901 15.25V7.97046" stroke="white" stroke-width="1.5" stroke-linecap="round" stroke-linejoin="round"/>
</g>
<defs>
<clipPath id="clip0_756_515">
<rect width="16" height="16" fill="white"/>
</clipPath>
</defs>
</svg>
