<svg width="16" height="16" viewBox="0 0 16 16" fill="none" xmlns="http://www.w3.org/2000/svg">
<g clip-path="url(#clip0_756_484)">
<path d="M15.2496 11.606V13.7889C15.2504 13.9915 15.2088 14.1921 15.1274 14.3778C15.0461 14.5634 14.9268 14.7301 14.7772 14.8671C14.6276 15.0041 14.4509 15.1084 14.2586 15.1733C14.0662 15.2382 13.8624 15.2623 13.6602 15.2441C11.4168 15.0008 9.26181 14.2357 7.36846 13.0103C5.60693 11.8932 4.11347 10.4027 2.99412 8.64466C1.762 6.74647 0.995225 4.58531 0.755918 2.33626C0.737699 2.13506 0.761659 1.93226 0.826272 1.7408C0.890885 1.54934 0.994735 1.37341 1.13121 1.2242C1.26769 1.07499 1.4338 0.955773 1.61897 0.874144C1.80414 0.792515 2.00431 0.750261 2.20674 0.750071H4.39391C4.74772 0.746595 5.09073 0.871639 5.359 1.10189C5.62727 1.33215 5.8025 1.65191 5.85202 2.00156C5.94433 2.70012 6.11554 3.38601 6.36236 4.04615C6.46045 4.30658 6.48168 4.58961 6.42353 4.86172C6.36539 5.13382 6.2303 5.38358 6.03428 5.58141L5.64885 5.96608C5.32973 6.28457 5.25948 6.77982 5.50787 7.15607C6.37925 8.47602 7.51099 9.60517 8.83384 10.4744C9.20948 10.7213 9.70298 10.6513 10.0211 10.3338L10.4086 9.94708C10.6068 9.75145 10.8571 9.61664 11.1297 9.5586C11.4024 9.50057 11.686 9.52176 11.9469 9.61966C12.6084 9.86599 13.2956 10.0369 13.9956 10.129C14.3497 10.1788 14.6732 10.3569 14.9044 10.6292C15.1356 10.9016 15.2584 11.2492 15.2496 11.606Z" stroke="white" stroke-width="1.5" stroke-linecap="round" stroke-linejoin="round"/>
</g>
<defs>
<clipPath id="clip0_756_484">
<rect width="16" height="16" fill="white"/>
</clipPath>
</defs>
</svg>
