<svg width="16" height="16" viewBox="0 0 16 16" fill="none" xmlns="http://www.w3.org/2000/svg">
<path d="M1.42315 11.6536L1.43872 11.6588C1.50358 11.6805 1.56848 11.7013 1.6334 11.7212C1.62 11.6082 1.62837 11.4885 1.66468 11.3661C1.74627 11.0909 1.93682 10.9177 2.06579 10.8237C2.08571 10.8091 2.10603 10.7951 2.12671 10.7816L2.00106 10.827C2.00105 10.827 2.00104 10.827 2.00103 10.827C1.99168 10.8304 1.98331 10.8333 1.97478 10.8362L1.42315 11.6536ZM1.42315 11.6536L1.40738 11.6491M1.42315 11.6536L1.40738 11.6491M1.40738 11.6491C1.1498 11.5754 0.977144 11.4903 0.869378 11.417C0.849373 11.4034 0.832259 11.3907 0.817661 11.379M1.40738 11.6491L0.817661 11.379M0.817661 11.379C0.996798 11.2563 1.24042 11.1334 1.47999 11.0293C1.73844 10.9169 1.94777 10.8453 1.97472 10.8362L0.817661 11.379ZM2.85069 11.1192C2.8508 11.1192 2.85303 11.12 2.85703 11.1218C2.85257 11.1202 2.85057 11.1193 2.85069 11.1192ZM13.2125 11.1842C13.2123 11.1843 13.2101 11.1835 13.2061 11.1816C13.2106 11.1832 13.2126 11.1842 13.2125 11.1842ZM14.3984 10.9379C14.4346 10.8163 14.4432 10.6973 14.4302 10.5851C14.4647 10.5975 14.4988 10.6102 14.5326 10.6232L14.5525 10.6308L14.5727 10.6373C14.836 10.7218 15.012 10.8073 15.1244 10.8794C15.1463 10.8935 15.1653 10.9067 15.1815 10.9189C15.1652 10.9321 15.1465 10.9466 15.1252 10.962C15.0484 11.0176 14.9578 11.072 14.8645 11.1216C14.7724 11.1707 14.6858 11.2108 14.6205 11.2393C14.5644 11.2636 14.5266 11.2783 14.5178 11.2817L14.0193 11.4635C14.1471 11.3664 14.3213 11.1976 14.3984 10.9379ZM10.2233 3.85854C10.2094 3.82504 10.1943 3.79188 10.1779 3.7592C10.7133 4.01719 11.0555 4.28518 11.2827 4.58222C11.6034 5.00137 11.7783 5.58854 11.7783 6.58853C11.7783 7.45579 11.5297 7.89254 11.3036 8.07654C11.1267 8.22052 10.8341 8.31287 10.3751 8.18208V4.77424C10.3751 4.51836 10.3552 4.17676 10.2233 3.85854ZM8.47301 3.13655C8.33069 3.21696 8.21753 3.32459 8.13187 3.43816C7.90428 3.73989 7.83884 4.11696 7.83884 4.43211V13.2104L6.7326 12.854V2.64294C7.3122 2.7886 7.93385 2.96896 8.47301 3.13655ZM9.48731 10.6132L9.49224 10.6115C9.49047 10.6121 9.48869 10.6127 9.48691 10.6133L9.48731 10.6132ZM0.726313 11.4496C0.726299 11.4496 0.726511 11.4493 0.726988 11.4487L0.726313 11.4496ZM9.4973 13.1124C9.49743 13.1124 9.49755 13.1123 9.49768 13.1123L9.4973 13.1124ZM14.5208 11.2806L14.5206 11.2807L14.5208 11.2806Z" stroke="white" stroke-width="1.5"/>
</svg>
