<svg width="16" height="16" viewBox="0 0 16 16" fill="none" xmlns="http://www.w3.org/2000/svg">
<g clip-path="url(#clip0_756_643)">
<path d="M0.749817 11.0208V12.9643C0.749817 14.2267 1.77317 15.25 3.03553 15.25H4.97898M9.20815 15.25H10.5474C11.8098 15.25 12.8332 14.2267 12.8332 12.9643V11.0208M12.8332 6.79168V5.45234C12.8332 4.19 11.8098 3.16666 10.5475 3.16663L9.20815 3.1666M4.97898 3.16668H3.03553C1.77317 3.16668 0.749817 4.19003 0.749817 5.45239V6.79168" stroke="white" stroke-width="1.5" stroke-linecap="round"/>
<path d="M12.8336 11.0209H13.1356C14.3035 11.0209 15.2502 10.0742 15.2502 8.9063V8.9063C15.2502 7.73845 14.3035 6.79172 13.1356 6.79172H12.8336" stroke="white" stroke-width="1.5" stroke-linecap="round"/>
<path d="M4.97864 15.25V14.948C4.97864 13.7801 5.92537 12.8334 7.09322 12.8334V12.8334C8.26107 12.8334 9.2078 13.7801 9.2078 14.948V15.25" stroke="white" stroke-width="1.5" stroke-linecap="round"/>
<path d="M0.749817 11.0209H1.0519C2.21975 11.0209 3.16648 10.0742 3.16648 8.9063V8.9063C3.16648 7.73845 2.21975 6.79172 1.0519 6.79172H0.749817" stroke="white" stroke-width="1.5" stroke-linecap="round"/>
<path d="M9.2078 3.16667V2.86458C9.2078 1.69673 8.26107 0.75 7.09322 0.75V0.75C5.92537 0.75 4.97864 1.69673 4.97864 2.86458V3.16667" stroke="white" stroke-width="1.5"/>
</g>
<defs>
<clipPath id="clip0_756_643">
<rect width="16" height="16" fill="white"/>
</clipPath>
</defs>
</svg>
