<svg width="16" height="16" viewBox="0 0 16 16" fill="none" xmlns="http://www.w3.org/2000/svg">
<g clip-path="url(#clip0_756_537)">
<circle cx="7.99997" cy="8" r="2.75" stroke="white" stroke-width="1.5"/>
<path d="M10.7327 14.6365C9.85944 14.9956 8.92972 15.1752 8 15.1752C7.07028 15.1752 6.14056 14.9956 5.26733 14.6365M1.36351 10.7327C1.00436 9.85944 0.824788 8.92971 0.824788 7.99999C0.824788 7.07027 1.00436 6.14055 1.36351 5.26732M5.26733 1.3635C6.14056 1.00436 7.07028 0.824782 8 0.824782C8.92972 0.824782 9.85944 1.00436 10.7327 1.3635M14.6365 5.26732C14.9956 6.14055 15.1752 7.07027 15.1752 7.99999C15.1752 8.92971 14.9956 9.85944 14.6365 10.7327" stroke="white" stroke-width="1.5" stroke-linecap="round" stroke-linejoin="round"/>
</g>
<defs>
<clipPath id="clip0_756_537">
<rect width="16" height="16" fill="white"/>
</clipPath>
</defs>
</svg>
