<svg width="16" height="16" viewBox="0 0 16 16" fill="none" xmlns="http://www.w3.org/2000/svg">
<g clip-path="url(#clip0_756_211)">
<path d="M4.375 0.75H3.22619C1.85863 0.75 0.75 1.85863 0.75 3.22619V12.7738C0.75 14.1414 1.85863 15.25 3.22619 15.25H4.375M4.375 0.75H10.5993C11.2561 0.75 11.8859 1.01088 12.3503 1.47526L14.5247 3.64974C14.9891 4.11412 15.25 4.74394 15.25 5.40067V12.7738C15.25 14.1414 14.1414 15.25 12.7738 15.25H11.625M4.375 0.75V3.16667V3.16667C4.375 3.83401 4.91599 4.375 5.58333 4.375V4.375H9.20833M4.375 15.25H8H11.625M4.375 15.25V11.6845C4.375 10.317 5.48363 9.20833 6.85119 9.20833H9.14881C10.5164 9.20833 11.625 10.317 11.625 11.6845V15.25" stroke="white" stroke-width="1.5" stroke-linecap="round"/>
</g>
<defs>
<clipPath id="clip0_756_211">
<rect width="16" height="16" fill="white"/>
</clipPath>
</defs>
</svg>
