<svg width="16" height="16" viewBox="0 0 16 16" fill="none" xmlns="http://www.w3.org/2000/svg">
<g clip-path="url(#clip0_756_266)">
<path d="M7.45656 1.39404C7.62762 0.867573 8.37243 0.867573 8.54349 1.39404L9.85868 5.44179C9.93518 5.67723 10.1546 5.83664 10.4021 5.83664H14.6582C15.2118 5.83664 15.4419 6.54499 14.9941 6.87036L11.5509 9.37201C11.3506 9.51752 11.2668 9.77544 11.3433 10.0109L12.6585 14.0586C12.8295 14.5851 12.227 15.0229 11.7791 14.6975L8.3359 12.1959C8.13562 12.0504 7.86443 12.0504 7.66415 12.1959L4.22092 14.6975C3.77309 15.0229 3.17053 14.5851 3.34159 14.0586L4.65678 10.0109C4.73328 9.77544 4.64948 9.51752 4.4492 9.37201L1.00597 6.87036C0.558137 6.54499 0.788295 5.83664 1.34185 5.83664H5.59791C5.84547 5.83664 6.06487 5.67723 6.14137 5.44179L7.45656 1.39404Z" stroke="white" stroke-width="1.5"/>
</g>
<defs>
<clipPath id="clip0_756_266">
<rect width="16" height="16" fill="white"/>
</clipPath>
</defs>
</svg>
