<svg width="16" height="16" viewBox="0 0 16 16" fill="none" xmlns="http://www.w3.org/2000/svg">
<mask id="path-1-inside-1_796_908" fill="white">
<path d="M0 8.7811C0 7.28213 1.15842 6.03801 2.65358 5.93122L3.55896 5.86654L7.52021 5.5836C7.83783 5.56091 8.14944 5.48528 8.44213 5.35985L12.0174 3.8276C13.9027 3.0196 16 4.40254 16 6.45373V9.54933C16 11.1273 14.7208 12.4065 13.1429 12.4065H2.85714C1.27919 12.4065 0 11.1273 0 9.54933V8.7811Z"/>
</mask>
<path d="M4.30896 5.86654C4.30896 5.45233 3.97317 5.11654 3.55896 5.11654C3.14475 5.11654 2.80896 5.45233 2.80896 5.86654H4.30896ZM5.71429 9.7279C6.1285 9.7279 6.46429 9.39211 6.46429 8.9779C6.46429 8.56369 6.1285 8.2279 5.71429 8.2279V9.7279ZM2.80896 5.86654V6.82257H4.30896V5.86654H2.80896ZM2.80896 6.82257C2.80896 8.42714 4.10972 9.7279 5.71429 9.7279V8.2279C4.93815 8.2279 4.30896 7.59871 4.30896 6.82257H2.80896ZM3.55896 5.86654L3.45209 4.37036L3.45209 4.37036L3.55896 5.86654ZM8.44213 5.35985L9.033 6.73856H9.033L8.44213 5.35985ZM7.52021 5.5836L7.62708 7.07979L7.52021 5.5836ZM12.0174 3.8276L12.6083 5.20632L12.0174 3.8276ZM2.65358 5.93122L2.76045 7.4274H2.76045L2.65358 5.93122ZM14.5 6.45373V9.54933H17.5V6.45373H14.5ZM13.1429 10.9065H2.85714V13.9065H13.1429V10.9065ZM1.5 9.54933V8.7811H-1.5V9.54933H1.5ZM2.76045 7.4274L3.66583 7.36273L3.45209 4.37036L2.54671 4.43503L2.76045 7.4274ZM3.66583 7.36273L7.62708 7.07979L7.41333 4.08741L3.45209 4.37036L3.66583 7.36273ZM7.85125 3.98113C7.71222 4.04071 7.56421 4.07663 7.41333 4.08741L7.62708 7.07979C8.11146 7.04519 8.58665 6.92986 9.033 6.73856L7.85125 3.98113ZM2.85714 10.9065C2.10761 10.9065 1.5 10.2989 1.5 9.54933H-1.5C-1.5 11.9557 0.450759 13.9065 2.85714 13.9065V10.9065ZM14.5 9.54933C14.5 10.2989 13.8924 10.9065 13.1429 10.9065V13.9065C15.5492 13.9065 17.5 11.9557 17.5 9.54933H14.5ZM17.5 6.45373C17.5 3.32566 14.3016 1.21668 11.4265 2.44888L12.6083 5.20632C13.5038 4.82251 14.5 5.47941 14.5 6.45373H17.5ZM1.5 8.7811C1.5 8.06909 2.05025 7.47813 2.76045 7.4274L2.54671 4.43503C0.266593 4.59789 -1.5 6.49517 -1.5 8.7811H1.5ZM9.033 6.73856L12.6083 5.20632L11.4265 2.44888L7.85125 3.98113L9.033 6.73856Z" fill="white" mask="url(#path-1-inside-1_796_908)"/>
</svg>
