<svg width="16" height="16" viewBox="0 0 16 16" fill="none" xmlns="http://www.w3.org/2000/svg">
<rect x="0.75" y="0.75" width="14.5" height="14.5" rx="7.25" stroke="white" stroke-width="1.5"/>
<path fill-rule="evenodd" clip-rule="evenodd" d="M7.68336 3.68605C7.86754 3.53535 8.13241 3.53535 8.31659 3.68605L12.4579 7.07442C12.6398 7.2232 12.5346 7.51791 12.2996 7.51791H11.6363V11.927C11.6363 12.2031 11.4125 12.427 11.1363 12.427H4.86361C4.58747 12.427 4.36361 12.2031 4.36361 11.927V7.51791H3.70033C3.46538 7.51791 3.36018 7.22319 3.54202 7.07442L7.68336 3.68605ZM6.68161 8.827C6.40547 8.827 6.18161 9.05086 6.18161 9.327V10.127C6.18161 10.4031 6.40547 10.627 6.68161 10.627H9.31798C9.59412 10.627 9.81798 10.4031 9.81798 10.127V9.327C9.81798 9.05086 9.59412 8.827 9.31798 8.827H6.68161Z" fill="white"/>
</svg>
