<svg width="16" height="16" viewBox="0 0 16 16" fill="none" xmlns="http://www.w3.org/2000/svg">
<g clip-path="url(#clip0_756_546)">
<path d="M5.58333 0.75H2.36111C1.93382 0.75 1.52403 0.919742 1.22188 1.22188C0.919742 1.52403 0.75 1.93382 0.75 2.36111V5.58333M5.58333 0.75H13.6389C14.0662 0.75 14.476 0.919742 14.7781 1.22188C15.0803 1.52403 15.25 1.93382 15.25 2.36111V5.58333M5.58333 0.75V15.25M0.75 5.58333V13.6389C0.75 14.0662 0.919742 14.476 1.22188 14.7781C1.52403 15.0803 1.93382 15.25 2.36111 15.25H5.58333M0.75 5.58333H15.25M15.25 5.58333V13.6389C15.25 14.0662 15.0803 14.476 14.7781 14.7781C14.476 15.0803 14.0662 15.25 13.6389 15.25H5.58333" stroke="white" stroke-width="1.5" stroke-linecap="round" stroke-linejoin="round"/>
</g>
<defs>
<clipPath id="clip0_756_546">
<rect width="16" height="16" fill="white"/>
</clipPath>
</defs>
</svg>
