<svg width="16" height="16" viewBox="0 0 16 16" fill="none" xmlns="http://www.w3.org/2000/svg">
<g clip-path="url(#clip0_756_216)">
<path d="M4.2857 2.51651V12.025C4.2857 12.4669 3.92753 12.825 3.4857 12.825H2.85713C2.4153 12.825 2.05713 13.1832 2.05713 13.625V14.6358C2.05713 15.0776 2.4153 15.4358 2.85713 15.4358H13.1428C13.5847 15.4358 13.9428 15.0776 13.9428 14.6358V13.625C13.9428 13.1832 13.5847 12.825 13.1428 12.825H12.5143C12.0724 12.825 11.7143 12.4669 11.7143 12.025V2.51651M4.2857 2.51651L6.5 2.51545M4.2857 2.51651V2.51536M6.5 2.51545V1.37401C6.5 0.933573 6.85601 0.575978 7.29645 0.574023L8.69645 0.567807C9.13966 0.565839 9.5 0.924584 9.5 1.3678V2.50213M6.5 2.51545L7.99999 2.51651L9.5 2.50213M9.5 2.50213L11.7143 2.51651M11.7143 2.51651H13.1428C13.5847 2.51651 13.9428 2.15833 13.9428 1.71651V1.37854C13.9428 0.936744 13.5847 0.578584 13.1429 0.578542L12.5143 0.578481C12.0725 0.578439 11.7143 0.936624 11.7143 1.37848V2.51651ZM4.2857 2.51536L2.85754 2.51609C2.41555 2.51632 2.05713 2.15808 2.05713 1.71609V1.3782C2.05713 0.936539 2.41505 0.578434 2.85672 0.578205L3.48529 0.577881C3.92728 0.577652 4.2857 0.935891 4.2857 1.37788V2.51536Z" stroke="white" stroke-width="1.14286" stroke-linejoin="round"/>
</g>
<defs>
<clipPath id="clip0_756_216">
<rect width="16" height="16" fill="white"/>
</clipPath>
</defs>
</svg>
