<svg width="16" height="16" viewBox="0 0 16 16" fill="none" xmlns="http://www.w3.org/2000/svg">
<g clip-path="url(#clip0_756_752)">
<path d="M5.75 8.89744V6.96197M5.75 5.67166V6.96197M5.75 5.67166C5.75 3.98727 5.20102 2.32799 3.25 2.23307C2.48648 2.19592 1.50676 2.60969 0.985013 3.53167M5.75 5.67166C4.58658 4.87102 3.22 4.88466 1.86111 5.56411C0.75 6.11966 0.75 7.23077 0.75 7.60713C0.75 8.43026 1.74195 8.89744 2.41667 8.89744C3.89416 8.89744 5.75 7.83505 5.75 6.96197" stroke="white" stroke-width="1.5" stroke-linecap="round"/>
<path d="M11.5757 13.7692C11.1462 11.8846 10.4159 7.73847 10.9314 6.23077M8.35409 7.48718C10.0723 7.69659 13.7664 7.36154 14.7973 6.85898M14.153 8.74359C14.0822 8.89537 14.0046 9.05551 13.9206 9.22183M13.9206 9.22183C12.1831 12.2736 9.02739 14.5273 8.35406 12.7261C7.47611 10.3776 12.3996 8.44365 13.9206 9.22183ZM13.9206 9.22183C14.7973 9.67036 16.7393 11.2602 13.2218 13.5099" stroke="white" stroke-width="1.5" stroke-linecap="round"/>
</g>
<defs>
<clipPath id="clip0_756_752">
<rect width="16" height="16" fill="white"/>
</clipPath>
</defs>
</svg>
