<svg width="16" height="16" viewBox="0 0 16 16" fill="none" xmlns="http://www.w3.org/2000/svg">
<path d="M6.52699 11.4858L6.48803 11.5424C5.98927 12.2676 5.09052 12.6038 4.23827 12.3841L3.47117 12.1863C2.57154 11.9544 1.79735 11.3535 1.4374 10.497C0.528543 8.33448 0.613924 7.12896 1.15537 5.45284C2.09259 3.45624 5.55148 3.2392 7.16324 3.25047C7.7219 3.25438 8.2781 3.25438 8.83676 3.25046C10.4485 3.23917 13.9074 3.45616 14.8446 5.45276C15.3861 7.12888 15.4715 8.3344 14.5626 10.497C14.2027 11.3534 13.4285 11.9543 12.5288 12.1862L11.7617 12.384C10.9095 12.6038 10.0107 12.2675 9.51196 11.5424L9.47301 11.4858C9.32396 11.2691 9.12894 11.0879 8.90185 10.9553C8.34468 10.6298 7.65533 10.6298 7.09816 10.9553C6.87106 11.0879 6.67604 11.2691 6.52699 11.4858Z" stroke="white" stroke-width="1.5"/>
</svg>
