<svg width="16" height="16" viewBox="0 0 16 16" fill="none" xmlns="http://www.w3.org/2000/svg">
<g clip-path="url(#clip0_756_620)">
<path d="M12.6929 13.5203C12.6931 13.5253 12.6932 13.5299 12.6932 13.5341C11.4198 14.6082 9.78741 15.25 8.00573 15.25C6.19404 15.25 4.51989 14.5867 3.2651 13.4893C3.22692 13.4417 3.15831 13.3027 3.24448 12.9232C3.33724 12.5148 3.58109 11.986 3.96283 11.3835C4.72094 10.1871 5.90637 8.88066 7.00682 7.95525C7.25821 7.74385 7.60776 7.50945 7.91279 7.3356C7.97489 7.30021 8.02715 7.28776 8.0635 7.28581C8.09674 7.28403 8.12299 7.2902 8.14865 7.30419C8.28865 7.38051 8.39919 7.45861 8.46489 7.52551L9 7L8.4649 7.52551C9.22563 8.30013 10.5183 9.76716 11.4881 11.1543C11.9765 11.8529 12.3558 12.493 12.554 12.994C12.6538 13.2465 12.6894 13.4188 12.6929 13.5203ZM12.691 13.5731C12.6909 13.5731 12.691 13.5725 12.6913 13.5715L12.691 13.5731Z" stroke="white" stroke-width="1.5" stroke-miterlimit="16" stroke-linejoin="round"/>
<mask id="path-2-inside-1_756_620" fill="white">
<path d="M12.1741 1.20884C12.1741 1.17985 12.161 1.16663 12.1362 1.15171C10.9245 0.424434 9.5993 0 8.00569 0C6.41314 0 5.07751 0.423868 3.86622 1.15026C3.83977 1.16612 3.80298 1.178 3.80298 1.20884C3.80298 1.23801 3.85133 1.22839 3.87993 1.2227C5.40704 0.918956 7.66758 2.18152 7.95826 2.36368C7.96785 2.36968 7.97745 2.37206 7.98877 2.37206C7.99982 2.37206 8.00917 2.36982 8.0186 2.36405C8.29955 2.1921 10.5547 0.932907 12.0921 1.2221C12.1241 1.22813 12.1741 1.24144 12.1741 1.20884Z"/>
</mask>
<path d="M12.0921 1.2221L12.6467 -1.72619L12.0921 1.2221ZM8.0186 2.36405L6.45249 -0.194718L8.0186 2.36405ZM3.87993 1.2227L4.46518 4.16506L3.87993 1.2227ZM7.95826 2.36368L6.36524 4.90578L7.95826 2.36368ZM12.1362 1.15171L10.5923 3.72395L12.1362 1.15171ZM13.6801 -1.42052C12.0418 -2.40384 10.1878 -3 8.00569 -3V3C9.01084 3 9.80716 3.25271 10.5923 3.72395L13.6801 -1.42052ZM8.00569 -3C5.82944 -3 3.965 -2.40706 2.32333 -1.42258L5.40911 3.72309C6.19002 3.2548 6.99684 3 8.00569 3V-3ZM4.46518 4.16506C4.34656 4.18866 4.36569 4.15911 4.58326 4.19872C4.78177 4.23485 5.03426 4.30808 5.31912 4.41609C5.90794 4.63936 6.36928 4.90831 6.36524 4.90578L9.55128 -0.178428C9.25656 -0.363116 8.44228 -0.816524 7.44638 -1.19414C6.56884 -1.52688 4.93832 -2.04658 3.29469 -1.71966L4.46518 4.16506ZM9.58471 4.92282C9.56885 4.93253 9.68605 4.86238 9.9009 4.75477C10.1076 4.65124 10.3691 4.53103 10.6484 4.42505C10.9343 4.31657 11.1899 4.2418 11.3932 4.20411C11.6152 4.16296 11.6444 4.19051 11.5375 4.17039L12.6467 -1.72619C11.0138 -2.03335 9.39683 -1.51745 8.51996 -1.18475C7.52415 -0.80693 6.72216 -0.359766 6.45249 -0.194718L9.58471 4.92282ZM11.5375 4.17039C11.3019 4.12607 11.7602 4.2298 12.1439 4.22996C12.3374 4.23003 13.0311 4.22218 13.755 3.76999C14.1661 3.51324 14.5597 3.12837 14.8321 2.60586C15.0978 2.0963 15.1741 1.59858 15.1741 1.20884H9.17414C9.17414 0.827246 9.24894 0.336243 9.51173 -0.167829C9.78127 -0.684851 10.1707 -1.06546 10.5766 -1.31897C11.2902 -1.76467 11.9693 -1.77011 12.1463 -1.77004C12.497 -1.76991 12.9143 -1.67585 12.6467 -1.72619L11.5375 4.17039ZM7.98877 5.37206C8.47136 5.37206 9.03911 5.25676 9.58471 4.92282L6.45249 -0.194718C6.68603 -0.337653 6.95199 -0.455497 7.24548 -0.532226C7.53332 -0.60748 7.78934 -0.62794 7.98877 -0.62794V5.37206ZM0.802979 1.20884C0.802979 2.22598 1.31829 3.20406 2.22126 3.76828C2.89231 4.18758 3.5313 4.22041 3.72905 4.22712C3.99329 4.23608 4.20173 4.20831 4.28811 4.19573C4.34154 4.18795 4.3854 4.1802 4.41374 4.17496C4.44075 4.16996 4.46387 4.16532 4.46518 4.16506L3.29469 -1.71966C3.18779 -1.6984 3.53271 -1.78299 3.93241 -1.76943C4.1145 -1.76326 4.73961 -1.73314 5.4007 -1.32006C5.77421 -1.08667 6.1592 -0.729366 6.43672 -0.222322C6.71274 0.281986 6.80298 0.789047 6.80298 1.20884H0.802979ZM2.32333 -1.42258C2.40166 -1.46955 2.50532 -1.52367 2.43268 -1.4849C2.41552 -1.47574 2.2667 -1.39817 2.09718 -1.27877C1.92769 -1.1594 1.6079 -0.910422 1.32587 -0.494363C1.01322 -0.0331081 0.802979 0.55305 0.802979 1.20884H6.80298C6.80298 1.84921 6.59734 2.42231 6.29241 2.87217C6.01811 3.27683 5.70917 3.51606 5.55218 3.62663C5.39517 3.73722 5.2605 3.80693 5.25768 3.80843C5.19939 3.83954 5.31756 3.778 5.40911 3.72309L2.32333 -1.42258ZM6.36524 4.90578C6.91326 5.2492 7.49053 5.37206 7.98877 5.37206V-0.62794C8.19601 -0.62794 8.45785 -0.605837 8.75006 -0.527459C9.04749 -0.44768 9.31622 -0.325728 9.55128 -0.178428L6.36524 4.90578ZM10.5923 3.72395C10.525 3.68356 10.0997 3.43716 9.73718 2.93802C9.29997 2.33607 9.17414 1.69441 9.17414 1.20884H15.1741C15.1741 0.694277 15.0418 0.0315154 14.5918 -0.588021C14.2165 -1.10475 13.7722 -1.36522 13.6801 -1.42052L10.5923 3.72395Z" fill="white" mask="url(#path-2-inside-1_756_620)"/>
<path d="M1.59135 9.0552C1.40842 9.43825 1.24219 9.83862 1.10974 10.2452C0.876892 9.53438 0.75 8.77695 0.75 7.99429C0.75 6.05522 1.51408 4.28155 2.76185 2.98001C2.87906 2.97117 3.09347 2.97782 3.35573 3.09345C3.54583 3.17726 3.7545 3.33097 3.98965 3.55282C4.17529 3.72796 4.34667 3.91478 4.52823 4.11268C4.57899 4.16801 4.63055 4.22421 4.68343 4.28126C4.73601 4.33799 4.7591 4.37892 4.76888 4.40132C4.77776 4.42166 4.77784 4.43117 4.77782 4.43474C4.7778 4.43807 4.77726 4.50481 4.66416 4.63933L3.92728 5.51574C3.92706 5.51601 3.92683 5.51627 3.92661 5.51654C3.09934 6.49506 2.20811 7.76375 1.59135 9.0552ZM2.89201 2.84741L2.892 2.84741L2.89201 2.84741Z" stroke="white" stroke-width="1.5" stroke-miterlimit="16" stroke-linejoin="round"/>
<path d="M13.6246 2.28082C15.0978 3.74055 16 5.74767 16 7.96008C16 9.22608 15.6994 10.4365 15.172 11.5059C15.1263 11.0801 15.024 10.6496 14.886 10.228M14.886 10.228C15.1214 9.51252 15.25 8.74809 15.25 7.96008C15.25 6.03327 14.4954 4.27835 13.2482 2.96816C13.0074 2.95872 12.5456 3.01865 12.0373 3.52325L11.6533 3.92977C11.4289 4.16738 11.3996 4.71549 11.7019 5.08069C11.7914 5.18875 11.8832 5.29708 11.9766 5.40723C12.1617 5.62564 12.3529 5.85118 12.5437 6.09591C13.3098 7.07863 14.0779 8.26289 14.5879 9.44522C14.698 9.70037 14.7991 9.96243 14.886 10.228Z" stroke="white" stroke-width="1.5" stroke-miterlimit="16" stroke-linejoin="round"/>
</g>
<defs>
<clipPath id="clip0_756_620">
<rect width="16" height="16" fill="white"/>
</clipPath>
</defs>
</svg>
