<svg width="16" height="16" viewBox="0 0 16 16" fill="none" xmlns="http://www.w3.org/2000/svg">
<g clip-path="url(#clip0_756_654)">
<path d="M7.80538 5.66001L7.80538 10.3402M7.80538 5.66001L5.19993 5.01188C3.94085 4.69867 2.62053 5.20826 1.89836 6.28614V6.28614C1.20355 7.32318 1.20355 8.67708 1.89836 9.71411V9.71411C2.62053 10.792 3.94085 11.3016 5.19993 10.9884L7.80538 10.3402M7.80538 5.66001L11.8789 8.00013M7.80538 5.66001L8.53714 3.11649C8.89867 1.85986 10.0179 0.965164 11.3229 0.881424V0.881424C12.5592 0.802081 13.7296 1.47195 14.2809 2.58145V2.58145C14.8615 3.74995 14.6416 5.15768 13.7322 6.09336L11.8789 8.00013M7.80538 10.3402L11.8789 8.00013M7.80538 10.3402L8.5365 12.8832C8.89784 14.14 10.017 15.0348 11.322 15.1186V15.1186C12.5584 15.1979 13.7286 14.528 14.28 13.4184V13.4184C14.8606 12.25 14.6408 10.8423 13.7315 9.90657L11.8789 8.00013" stroke="white" stroke-width="1.5"/>
</g>
<defs>
<clipPath id="clip0_756_654">
<rect width="16" height="16" fill="white"/>
</clipPath>
</defs>
</svg>
