<svg width="16" height="16" viewBox="0 0 16 16" fill="none" xmlns="http://www.w3.org/2000/svg">
<g clip-path="url(#clip0_756_165)">
<path d="M8.64101 3.62032L8.85493 3.81285H9.14274H9.54814H12.5713C14.0506 3.81285 15.2499 5.01209 15.2499 6.49142V11.4286C15.2499 12.9079 14.0506 14.1071 12.5713 14.1071H3.42845C1.94911 14.1071 0.749878 12.9079 0.749878 11.4286V4.57142C0.749878 3.09209 1.94912 1.89285 3.42845 1.89285H5.69374C6.35545 1.89285 6.99375 2.13779 7.4856 2.58046L7.98733 2.02299L7.4856 2.58046L8.64101 3.62032Z" stroke="white" stroke-width="1.5"/>
<path d="M10.6785 5.71427C10.6785 6.12849 11.0143 6.46427 11.4285 6.46427C11.8427 6.46427 12.1785 6.12849 12.1785 5.71427H10.6785ZM10.6785 3.42856V5.71427H12.1785V3.42856H10.6785Z" fill="white"/>
<path d="M12.1785 12.5714C12.1785 12.1572 11.8427 11.8214 11.4285 11.8214C11.0143 11.8214 10.6785 12.1572 10.6785 12.5714H12.1785ZM12.1785 14.8571V12.5714H10.6785V14.8571H12.1785Z" fill="white"/>
<path d="M11.4285 9.71426V8.57141" stroke="white" stroke-width="1.5" stroke-linecap="round"/>
</g>
<defs>
<clipPath id="clip0_756_165">
<rect width="16" height="16" fill="white"/>
</clipPath>
</defs>
</svg>
