<svg width="16" height="16" viewBox="0 0 16 16" fill="none" xmlns="http://www.w3.org/2000/svg">
<g clip-path="url(#clip0_756_818)">
<path d="M12.3498 5.1C13.551 5.1 14.5248 4.12622 14.5248 2.925C14.5248 1.72378 13.551 0.75 12.3498 0.75C11.1486 0.75 10.1748 1.72378 10.1748 2.925C10.1748 4.12622 11.1486 5.1 12.3498 5.1Z" stroke="white" stroke-width="1.5" stroke-linecap="round" stroke-linejoin="round"/>
<path d="M3.64997 10.175C4.85119 10.175 5.82497 9.20123 5.82497 8.00001C5.82497 6.79879 4.85119 5.82501 3.64997 5.82501C2.44876 5.82501 1.47498 6.79879 1.47498 8.00001C1.47498 9.20123 2.44876 10.175 3.64997 10.175Z" stroke="white" stroke-width="1.5" stroke-linecap="round" stroke-linejoin="round"/>
<path d="M12.3498 15.25C13.551 15.25 14.5248 14.2762 14.5248 13.075C14.5248 11.8738 13.551 10.9 12.3498 10.9C11.1486 10.9 10.1748 11.8738 10.1748 13.075C10.1748 14.2762 11.1486 15.25 12.3498 15.25Z" stroke="white" stroke-width="1.5" stroke-linecap="round" stroke-linejoin="round"/>
<path d="M5.52844 9.09476L10.4802 11.9803" stroke="white" stroke-width="1.5" stroke-linecap="round" stroke-linejoin="round"/>
<path d="M10.4729 4.01974L5.52844 6.90524" stroke="white" stroke-width="1.5" stroke-linecap="round" stroke-linejoin="round"/>
</g>
<defs>
<clipPath id="clip0_756_818">
<rect width="16" height="16" fill="white"/>
</clipPath>
</defs>
</svg>
