<svg width="16" height="16" viewBox="0 0 16 16" fill="none" xmlns="http://www.w3.org/2000/svg">
<path d="M5.26754 3.03612C5.66548 2.96364 6.09932 2.99415 6.4924 3.18341L6.54429 3.20858C6.84106 3.35361 7.15423 3.43471 7.46413 3.43471H8.53589C8.84583 3.43471 9.15895 3.35361 9.45574 3.20858L9.5076 3.18342C9.90067 2.99417 10.3345 2.96366 10.7325 3.03612L11.543 3.18373C12.1918 3.30188 12.7507 3.70067 13.0528 4.26559C14.059 6.14778 14.8151 7.68408 15.1111 8.99299C15.4149 10.3356 15.2432 11.4801 14.3674 12.5237C13.774 13.2307 12.7355 13.0891 12.1927 12.5013C11.7689 12.0423 11.2886 11.5136 10.8213 10.9955C10.4748 10.6112 9.97238 10.3899 9.44414 10.3899H6.55581C6.02765 10.3899 5.5252 10.6112 5.17868 10.9955C4.71146 11.5136 4.23113 12.0423 3.80731 12.5013C3.26452 13.0891 2.22599 13.2307 1.63261 12.5237C0.756743 11.4801 0.585091 10.3356 0.888852 8.9929C1.18497 7.68407 1.94097 6.14777 2.94727 4.26557C3.2493 3.70065 3.80819 3.30187 4.457 3.18371L5.26754 3.03612Z" stroke="white" stroke-width="1.5"/>
</svg>
